<?xml version="1.0" encoding="utf-8"?>
<!-- Generator: Adobe Illustrator 24.1.2, SVG Export Plug-In . SVG Version: 6.00 Build 0)  -->
<svg version="1.1" id="Layer_1" xmlns="http://www.w3.org/2000/svg" xmlns:xlink="http://www.w3.org/1999/xlink" x="0px" y="0px"
	 viewBox="0 0 143 55" style="enable-background:new 0 0 143 55;" xml:space="preserve">
<style type="text/css">
	.st0{display:none;}
	.st1{display:inline;}
	.st2{fill:#2C3E50;}
	.st3{opacity:0.2;}
	.st4{fill-rule:evenodd;clip-rule:evenodd;fill:#F0F8F9;}
	.st5{fill:none;stroke:#000000;stroke-width:3;stroke-miterlimit:10;}
	.st6{fill:none;stroke:#2C3E50;stroke-width:3;stroke-miterlimit:10;}
	.st7{fill-rule:evenodd;clip-rule:evenodd;fill:url(#SVGID_1_);}
	.st8{opacity:0.76;}
	.st9{fill:#FCFCFC;}
	.st10{fill:#FFFFFF;}
	.st11{fill-rule:evenodd;clip-rule:evenodd;fill:#33EBE3;}
	.st12{fill-rule:evenodd;clip-rule:evenodd;fill:#1EBBA2;}
	.st13{fill-rule:evenodd;clip-rule:evenodd;fill:#FFEE4F;}
	.st14{fill-rule:evenodd;clip-rule:evenodd;fill:#FFBC2D;}
</style>
<g id="Background_xA0_Image_1_" class="st0">
	<g class="st1">
		<path class="st2" d="M142.8,54.9c-47.8,0-95.4,0-143,0c0-18.3,0-36.6,0-55c47.6,0,95.3,0,143,0C142.8,18.2,142.8,36.6,142.8,54.9z
			"/>
	</g>
</g>
<g id="logo_copy_2_1_">
	<g id="hd_copy" class="st3">
		<g>
			<path class="st4" d="M59.6,21.9H45.3V5.3H34.6v38h10.8V26.7h14.2v16.6h10.8v-38H59.6V21.9z M111.8,19c-0.5-1.7-1.2-3.2-2.1-4.6
				s-2-2.7-3.3-3.8s-2.7-2.1-4.2-2.9C100.7,7,99,6.4,97.3,5.9s-3.5-0.6-5.4-0.6H74.7v38h17.2c1.8,0,3.6-0.2,5.4-0.6
				c1.7-0.4,3.4-1,4.9-1.8s2.9-1.8,4.2-2.9c1.3-1.1,2.4-2.4,3.3-3.8c0.9-1.4,1.6-2.9,2.1-4.6s0.8-3.4,0.8-5.3S112.3,20.6,111.8,19z
				 M100.8,30.1c-0.5,1.8-1.3,3.5-2.4,4.9s-2.5,2.5-4.1,3.4c-1.7,0.8-3.7,1.3-5.9,1.3h-2.8V8.9h2.8c2.3,0,4.3,0.4,6,1.2
				s3,1.9,4.1,3.3s1.9,3,2.4,4.9s0.8,3.8,0.8,5.9C101.6,26.3,101.4,28.2,100.8,30.1z"/>
		</g>
		<g>
			<path class="st5" d="M59.6,21.9H45.3V5.3H34.6v38h10.8V26.7h14.2v16.6h10.8v-38H59.6V21.9z M111.8,19c-0.5-1.7-1.2-3.2-2.1-4.6
				s-2-2.7-3.3-3.8s-2.7-2.1-4.2-2.9C100.7,7,99,6.4,97.3,5.9s-3.5-0.6-5.4-0.6H74.7v38h17.2c1.8,0,3.6-0.2,5.4-0.6
				c1.7-0.4,3.4-1,4.9-1.8s2.9-1.8,4.2-2.9c1.3-1.1,2.4-2.4,3.3-3.8c0.9-1.4,1.6-2.9,2.1-4.6s0.8-3.4,0.8-5.3S112.3,20.6,111.8,19z
				 M100.8,30.1c-0.5,1.8-1.3,3.5-2.4,4.9s-2.5,2.5-4.1,3.4c-1.7,0.8-3.7,1.3-5.9,1.3h-2.8V8.9h2.8c2.3,0,4.3,0.4,6,1.2
				s3,1.9,4.1,3.3s1.9,3,2.4,4.9s0.8,3.8,0.8,5.9C101.6,26.3,101.4,28.2,100.8,30.1z"/>
		</g>
	</g>
	<g id="hd_copy_6_">
		<g>
			<path class="st4" d="M59.6,22.9H45.3V6.3H34.6v38h10.8V27.7h14.2v16.6h10.8v-38H59.6V22.9z M111.8,20c-0.5-1.7-1.2-3.2-2.1-4.6
				s-2-2.7-3.3-3.8s-2.7-2.1-4.2-2.9C100.7,8,99,7.4,97.3,6.9s-3.5-0.6-5.4-0.6H74.7v38h17.2c1.8,0,3.6-0.2,5.4-0.6
				c1.7-0.4,3.4-1,4.9-1.8s2.9-1.8,4.2-2.9c1.3-1.1,2.4-2.4,3.3-3.8c0.9-1.4,1.6-2.9,2.1-4.6c0.5-1.7,0.8-3.4,0.8-5.3
				S112.3,21.6,111.8,20z M100.8,31.1c-0.5,1.8-1.3,3.5-2.4,4.9s-2.5,2.5-4.1,3.4c-1.7,0.8-3.7,1.3-5.9,1.3h-2.8V9.9h2.8
				c2.3,0,4.3,0.4,6,1.2s3,1.9,4.1,3.3s1.9,3,2.4,4.9s0.8,3.8,0.8,5.9C101.6,27.3,101.4,29.2,100.8,31.1z"/>
		</g>
		<g>
			<path class="st6" d="M59.6,22.9H45.3V6.3H34.6v38h10.8V27.7h14.2v16.6h10.8v-38H59.6V22.9z M111.8,20c-0.5-1.7-1.2-3.2-2.1-4.6
				s-2-2.7-3.3-3.8s-2.7-2.1-4.2-2.9C100.7,8,99,7.4,97.3,6.9s-3.5-0.6-5.4-0.6H74.7v38h17.2c1.8,0,3.6-0.2,5.4-0.6
				c1.7-0.4,3.4-1,4.9-1.8s2.9-1.8,4.2-2.9c1.3-1.1,2.4-2.4,3.3-3.8c0.9-1.4,1.6-2.9,2.1-4.6c0.5-1.7,0.8-3.4,0.8-5.3
				S112.3,21.6,111.8,20z M100.8,31.1c-0.5,1.8-1.3,3.5-2.4,4.9s-2.5,2.5-4.1,3.4c-1.7,0.8-3.7,1.3-5.9,1.3h-2.8V9.9h2.8
				c2.3,0,4.3,0.4,6,1.2s3,1.9,4.1,3.3s1.9,3,2.4,4.9s0.8,3.8,0.8,5.9C101.6,27.3,101.4,29.2,100.8,31.1z"/>
		</g>
	</g>
	<g id="hd_copy_4_">
		<g>
			<path class="st4" d="M60,22.9H45.8V6.3H35v38h10.8V27.7H60v16.6h10.8v-38H60V22.9z M112.2,20c-0.5-1.7-1.2-3.2-2.1-4.6
				s-2-2.7-3.3-3.8s-2.7-2.1-4.2-2.9c-1.5-0.8-3.2-1.4-4.9-1.8s-3.5-0.6-5.4-0.6H75.2v38h17.2c1.8,0,3.6-0.2,5.4-0.6
				c1.7-0.4,3.4-1,4.9-1.8s2.9-1.8,4.2-2.9c1.3-1.1,2.4-2.4,3.3-3.8c0.9-1.4,1.6-2.9,2.1-4.6c0.5-1.7,0.8-3.4,0.8-5.3
				S112.7,21.6,112.2,20z M101.3,31.1c-0.5,1.8-1.3,3.5-2.4,4.9s-2.5,2.5-4.1,3.4c-1.7,0.8-3.7,1.3-5.9,1.3h-2.8V9.9h2.8
				c2.3,0,4.3,0.4,6,1.2s3,1.9,4.1,3.3s1.9,3,2.4,4.9s0.8,3.8,0.8,5.9C102.1,27.3,101.8,29.2,101.3,31.1z"/>
		</g>
	</g>
	<g id="hd_copy_2_">
		<g>
			
				<linearGradient id="SVGID_1_" gradientUnits="userSpaceOnUse" x1="74.6" y1="11.7" x2="74.6" y2="49.7" gradientTransform="matrix(1 0 0 -1 0 56)">
				<stop  offset="3.576144e-04" style="stop-color:#D8D8D8"/>
				<stop  offset="1" style="stop-color:#ADADAD"/>
			</linearGradient>
			<path class="st7" d="M60.6,22.9H46.3V6.3H35.6v38h10.8V27.7h14.2v16.6h10.8v-38H60.6V22.9z M112.8,20c-0.5-1.7-1.2-3.2-2.1-4.6
				s-2-2.7-3.3-3.8s-2.7-2.1-4.2-2.9c-1.5-0.8-3.2-1.4-4.9-1.8s-3.5-0.6-5.4-0.6H75.7v38h17.2c1.8,0,3.6-0.2,5.4-0.6
				c1.7-0.4,3.4-1,4.9-1.8s2.9-1.8,4.2-2.9c1.3-1.1,2.4-2.4,3.3-3.8c0.9-1.4,1.6-2.9,2.1-4.6c0.5-1.7,0.8-3.4,0.8-5.3
				S113.3,21.6,112.8,20z M101.8,31.1c-0.5,1.8-1.3,3.5-2.4,4.9s-2.5,2.5-4.1,3.4c-1.7,0.8-3.7,1.3-5.9,1.3h-2.8V9.9h2.8
				c2.3,0,4.3,0.4,6,1.2s3,1.9,4.1,3.3s1.9,3,2.4,4.9s0.8,3.8,0.8,5.9C102.6,27.3,102.4,29.2,101.8,31.1z"/>
		</g>
	</g>
	<g id="Layer_8">
		<g class="st8">
			<path class="st9" d="M79.4,20.9c2.4,0,4.7,0,7.1,0.1V9.9h2.8c2.3,0,4.3,0.4,6,1.2s3,1.9,4.1,3.3s1.9,3,2.4,4.9
				c0.3,0.9,0.5,1.9,0.6,2.9c3.9,0.5,7.6,1.1,11.1,1.9c-0.1-1.5-0.3-2.9-0.7-4.2c-0.5-1.7-1.2-3.2-2.1-4.6s-2-2.7-3.3-3.8
				s-2.7-2.1-4.2-2.9c-1.5-0.8-3.2-1.4-4.9-1.8s-3.5-0.6-5.4-0.6H75.7v14.6C76.9,20.9,78.2,20.9,79.4,20.9z"/>
			<path class="st9" d="M52.3,22.9h-6V6.3H35.6v20.5C40.4,25.2,46.1,23.9,52.3,22.9z"/>
			<path class="st9" d="M71.3,21V6.3H60.6v15.5C64,21.5,67.6,21.2,71.3,21z"/>
		</g>
	</g>
	<g id="porn_copy_1_" class="st3">
		<g>
			<path class="st10" d="M31.4,30.1c-1.2-1.2-2.7-1.9-4.6-2.2c0.3-0.5,0.7-0.8,1.1-1.1c0.4-0.3,0.8-0.4,1.3-0.5c0,0,0.1,0,0.1,0h0.3
				c0.1,0,0.2,0.1,0.3,0.1c0.1,0.1,0.2,0.1,0.2,0.2c0,0,0,0,0,0.1c0,0.1,0,0.2,0.1,0.3c0,0.1,0,0.1,0.1,0.2c0.1,0.1,0.1,0.2,0.2,0.2
				c0.1,0,0.2,0,0.3,0c0.7,0,1.2-0.2,1.8-0.7c0.5-0.4,0.8-0.9,0.8-1.5c0-0.5-0.2-0.9-0.7-1.2c-0.4-0.3-1-0.5-1.7-0.5
				c-1.3,0-2.6,0.3-3.7,1s-2.3,1.7-3.4,3.2h-0.6c-3.3,0-6.1,0.7-8.5,2.1c-2.4,1.4-3.5,3-3.5,5c0,0.9,0.4,1.7,1.1,2.3
				c0.7,0.6,1.6,0.9,2.6,0.9c0.8,0,1.5-0.2,2.2-0.5c0.7-0.3,1.3-0.8,1.9-1.5c0.3-0.3,0.5-0.6,0.6-0.8c0.1-0.3,0.2-0.5,0.2-0.7
				c0-0.1,0-0.2-0.1-0.3c0-0.1-0.1-0.1-0.2-0.2c-0.2-0.1-0.3-0.1-0.4-0.2c-0.1,0-0.2-0.1-0.3-0.2c-0.1-0.1-0.2-0.2-0.2-0.2
				c0-0.1-0.1-0.2-0.1-0.3c0-0.1,0-0.2,0.1-0.3c0.1-0.1,0.1-0.3,0.2-0.4c0.1-0.2,0.2-0.4,0.4-0.5c0.2-0.2,0.4-0.3,0.5-0.4
				c0,0,0.1-0.1,0.1-0.1c0.1,0,0.1,0,0.2-0.1c0.2-0.1,0.5-0.2,0.7-0.3c0.2-0.1,0.6-0.2,0.9-0.2c0.1,0,0.2,0,0.2,0c0.1,0,0.1,0,0.2,0
				C22.1,30.7,22,30.9,22,31c0,0.1-0.1,0.2-0.1,0.2c-0.4,0.9-0.7,1.5-0.9,1.9c-0.2,0.4-0.4,0.8-0.5,1.2c0,0,0,0.1,0,0.1
				c0,0,0,0.1,0,0.1c-0.1,0.2-0.2,0.5-0.4,0.8c-0.1,0.3-0.3,0.7-0.5,1.3c-0.2,0.6-0.4,1.1-0.6,1.5c-0.2,0.4-0.4,0.8-0.5,1.1
				c-0.1,0.2-0.2,0.4-0.3,0.6s-0.2,0.4-0.4,0.5c-0.3,0.3-0.6,0.6-0.9,0.9c-0.4,0.3-0.7,0.4-1.1,0.6c-0.2,0.1-0.4,0.1-0.6,0.2
				c-0.2,0-0.4,0.1-0.5,0.1c-0.5,0-0.8-0.1-1.2-0.4c-0.3-0.3-0.5-0.6-0.5-1c0,0,0-0.1,0-0.1c0,0,0-0.1,0-0.2c0,0,0-0.1,0-0.1
				C13,40,13,40,13,40c0.2-0.3,0.3-0.4,0.4-0.5c0.1-0.1,0.1-0.2,0.1-0.2V39c0-0.3-0.2-0.5-0.5-0.7c-0.3-0.2-0.7-0.3-1.2-0.3
				c-2.2,0-4.1,0.7-5.7,2.1c-1.6,1.4-2.4,3.1-2.4,5c0,1.6,0.7,3,2,4.1c1.3,1.1,3,1.7,4.9,1.7c2.9,0,5.3-0.9,7.2-2.7
				c1.9-1.8,3.3-4.4,4.2-7.8l0.3-1.2l0.6-2.4c0.2-0.6,0.3-1.1,0.4-1.6c0.1-0.5,0.3-0.9,0.4-1.3c0,0,0-0.1,0-0.1c0,0,0-0.1,0-0.2
				c0,0,0-0.1,0.1-0.1c0-0.1,0-0.1,0.1-0.2c0.1-0.4,0.2-0.7,0.4-1.2c0.2-0.4,0.4-1,0.7-1.7c0.9,0.2,1.6,0.6,2.2,1.2
				c0.5,0.6,0.8,1.3,0.8,2.1V34c0,0.7-0.3,1.3-0.7,1.8c-0.4,0.6-0.8,0.8-1.3,0.8c-0.2,0-0.3,0-0.5-0.2c-0.1-0.1-0.2-0.2-0.3-0.4
				c0-0.1,0-0.1-0.1-0.2c0,0,0-0.1-0.1-0.1c0-0.1-0.1-0.1-0.2-0.2c-0.1,0-0.1-0.1-0.2-0.1h-0.2c-0.3,0.1-0.6,0.4-0.9,0.9
				c-0.3,0.5-0.5,1.1-0.5,1.8v0.2c0,0.9,0.4,1.7,1.1,2.3c0.7,0.6,1.6,0.9,2.6,0.9c1.7,0,3.1-0.7,4.4-2.2c1.2-1.4,1.8-3.1,1.8-5.1
				C33.1,32.8,32.5,31.3,31.4,30.1z M39.7,35.8c-2.1,0-3.8,0.7-5.2,2.1c-1.4,1.4-2.2,3-2.2,5c0,1.4,0.5,2.5,1.4,3.5
				c1,0.9,2.2,1.3,3.7,1.3c2.1,0,3.8-0.7,5.2-2c1.4-1.4,2.1-3,2.1-5c0-1.4-0.5-2.6-1.4-3.5C42.5,36.2,41.3,35.8,39.7,35.8z
				 M39.7,40.4c-0.2,1.3-0.5,2.4-0.9,3.3c-0.4,0.9-0.8,1.4-1.1,1.3c-0.2,0-0.4-0.3-0.5-0.8c-0.1-0.5-0.1-1.1,0-1.8c0,0,0-0.1,0-0.1
				v-0.1c0.2-1.1,0.5-2,0.8-2.9c0.4-0.9,0.7-1.4,1-1.5c0,0,0,0,0.1,0h0.1c0.2,0.1,0.4,0.3,0.4,0.8C39.9,39.1,39.8,39.7,39.7,40.4z
				 M58.7,36.4c-0.4-0.4-1-0.6-1.7-0.6c-0.2,0-0.3,0-0.5,0c-0.2,0-0.4,0.1-0.6,0.1c-0.2,0.1-0.5,0.2-0.7,0.3s-0.5,0.3-0.7,0.4
				c-0.1,0-0.1,0.1-0.2,0.1c0,0-0.1,0.1-0.1,0.1c0,0,0,0-0.1,0c-0.1,0.1-0.3,0.3-0.5,0.4c-0.2,0.2-0.5,0.5-1,0.9
				c0-0.3,0.1-0.5,0.1-0.6c0-0.1,0-0.2,0-0.3v-0.1c0-0.4-0.2-0.8-0.5-1c-0.3-0.2-0.7-0.4-1.3-0.4c-0.3,0-0.6,0-0.9,0.1
				c-0.3,0.1-0.6,0.2-1,0.3c-0.4,0.2-0.8,0.4-1.2,0.6c-0.4,0.2-0.7,0.5-1,0.7c0.1,0,0.1,0.1,0.2,0.1c0,0,0.1,0.1,0.1,0.1
				c0.1,0.1,0.2,0.2,0.3,0.3c0.1,0.1,0.1,0.3,0.1,0.5v0.2c0,0.1,0,0.1,0,0.2c0,0.1,0,0.2,0,0.2c0,0.1,0,0.2,0,0.2l-1.8,7.8l-0.1,0.1
				h5.1l0.4-2.2l0.3-1.2c0.3-1.1,0.6-2,1.1-2.7c0.5-0.7,1.1-1.2,1.8-1.7c0,0.1,0,0.2,0,0.3c0,0.1,0,0.1,0,0.2c0,0.4,0.2,0.7,0.6,1
				c0.4,0.3,0.8,0.4,1.3,0.4c0.8,0,1.6-0.3,2.2-1c0.6-0.7,1-1.5,1-2.4C59.3,37.3,59.1,36.8,58.7,36.4z M74.4,44.2
				c-0.1-0.1-0.2-0.2-0.3-0.2c-0.1,0-0.2,0-0.3,0.1c-0.1,0-0.3,0.1-0.5,0.2c-0.1,0-0.2,0-0.3,0.1c-0.1,0-0.2,0-0.3,0
				c-0.3,0-0.5-0.1-0.7-0.2c-0.2-0.2-0.3-0.3-0.2-0.6c0-0.1,0-0.2,0-0.3c0-0.1,0.1-0.3,0.1-0.5l0.9-3.8c0,0,0-0.1,0-0.1
				c0,0,0-0.1,0-0.1c0-0.1,0-0.2,0-0.3c0-0.1,0-0.2,0-0.3c0-0.7-0.3-1.3-0.8-1.8c-0.5-0.5-1.2-0.7-2-0.7c-0.7,0-1.4,0.1-2.1,0.4
				c-0.7,0.3-1.4,0.7-2.1,1.3c0-0.6-0.2-1-0.5-1.3c-0.3-0.3-0.7-0.4-1.3-0.4c-0.6,0-1.3,0.1-2,0.4c-0.7,0.3-1.4,0.7-2.2,1.3
				c0.2,0.1,0.4,0.3,0.5,0.4c0.1,0.1,0.2,0.3,0.2,0.6c0,0.1,0,0.3,0,0.5c0,0.2-0.1,0.4-0.1,0.7l-1.7,7.8l0,0.1h4.8l0.5-2l0.8-3.6
				c0.1-0.6,0.4-1,0.6-1.4c0.3-0.3,0.6-0.5,1-0.5c0.3,0,0.5,0.1,0.6,0.2c0.2,0.1,0.2,0.3,0.2,0.6c0,0.1,0,0.1,0,0.2
				c0,0.1,0,0.2,0,0.3c0,0,0,0,0,0.1c0,0,0,0.1,0,0.1l-0.7,3.2c0,0,0,0.1,0,0.1c0,0,0,0.1,0,0.1c0,0.1,0,0.2,0,0.2
				c0,0.1,0,0.1,0,0.2c0,0.7,0.3,1.3,0.8,1.8c0.5,0.4,1.2,0.7,2.1,0.7h0.3c0.1,0,0.2,0,0.3,0c0.5,0,1.1-0.2,1.6-0.3
				c0.5-0.2,1-0.4,1.5-0.7c0.5-0.3,0.9-0.7,1.2-1c0.3-0.3,0.4-0.6,0.4-0.9C74.5,44.4,74.5,44.3,74.4,44.2z"/>
		</g>
		<g>
			<path class="st5" d="M31.4,30.1c-1.2-1.2-2.7-1.9-4.6-2.2c0.3-0.5,0.7-0.8,1.1-1.1c0.4-0.3,0.8-0.4,1.3-0.5c0,0,0.1,0,0.1,0h0.3
				c0.1,0,0.2,0.1,0.3,0.1c0.1,0.1,0.2,0.1,0.2,0.2c0,0,0,0,0,0.1c0,0.1,0,0.2,0.1,0.3c0,0.1,0,0.1,0.1,0.2c0.1,0.1,0.1,0.2,0.2,0.2
				c0.1,0,0.2,0,0.3,0c0.7,0,1.2-0.2,1.8-0.7c0.5-0.4,0.8-0.9,0.8-1.5c0-0.5-0.2-0.9-0.7-1.2c-0.4-0.3-1-0.5-1.7-0.5
				c-1.3,0-2.6,0.3-3.7,1s-2.3,1.7-3.4,3.2h-0.6c-3.3,0-6.1,0.7-8.5,2.1c-2.4,1.4-3.5,3-3.5,5c0,0.9,0.4,1.7,1.1,2.3
				c0.7,0.6,1.6,0.9,2.6,0.9c0.8,0,1.5-0.2,2.2-0.5c0.7-0.3,1.3-0.8,1.9-1.5c0.3-0.3,0.5-0.6,0.6-0.8c0.1-0.3,0.2-0.5,0.2-0.7
				c0-0.1,0-0.2-0.1-0.3c0-0.1-0.1-0.1-0.2-0.2c-0.2-0.1-0.3-0.1-0.4-0.2c-0.1,0-0.2-0.1-0.3-0.2c-0.1-0.1-0.2-0.2-0.2-0.2
				c0-0.1-0.1-0.2-0.1-0.3c0-0.1,0-0.2,0.1-0.3c0.1-0.1,0.1-0.3,0.2-0.4c0.1-0.2,0.2-0.4,0.4-0.5c0.2-0.2,0.4-0.3,0.5-0.4
				c0,0,0.1-0.1,0.1-0.1c0.1,0,0.1,0,0.2-0.1c0.2-0.1,0.5-0.2,0.7-0.3c0.2-0.1,0.6-0.2,0.9-0.2c0.1,0,0.2,0,0.2,0c0.1,0,0.1,0,0.2,0
				C22.1,30.7,22,30.9,22,31c0,0.1-0.1,0.2-0.1,0.2c-0.4,0.9-0.7,1.5-0.9,1.9c-0.2,0.4-0.4,0.8-0.5,1.2c0,0,0,0.1,0,0.1
				c0,0,0,0.1,0,0.1c-0.1,0.2-0.2,0.5-0.4,0.8c-0.1,0.3-0.3,0.7-0.5,1.3c-0.2,0.6-0.4,1.1-0.6,1.5c-0.2,0.4-0.4,0.8-0.5,1.1
				c-0.1,0.2-0.2,0.4-0.3,0.6s-0.2,0.4-0.4,0.5c-0.3,0.3-0.6,0.6-0.9,0.9c-0.4,0.3-0.7,0.4-1.1,0.6c-0.2,0.1-0.4,0.1-0.6,0.2
				c-0.2,0-0.4,0.1-0.5,0.1c-0.5,0-0.8-0.1-1.2-0.4c-0.3-0.3-0.5-0.6-0.5-1c0,0,0-0.1,0-0.1c0,0,0-0.1,0-0.2c0,0,0-0.1,0-0.1
				C13,40,13,40,13,40c0.2-0.3,0.3-0.4,0.4-0.5c0.1-0.1,0.1-0.2,0.1-0.2V39c0-0.3-0.2-0.5-0.5-0.7c-0.3-0.2-0.7-0.3-1.2-0.3
				c-2.2,0-4.1,0.7-5.7,2.1c-1.6,1.4-2.4,3.1-2.4,5c0,1.6,0.7,3,2,4.1c1.3,1.1,3,1.7,4.9,1.7c2.9,0,5.3-0.9,7.2-2.7
				c1.9-1.8,3.3-4.4,4.2-7.8l0.3-1.2l0.6-2.4c0.2-0.6,0.3-1.1,0.4-1.6c0.1-0.5,0.3-0.9,0.4-1.3c0,0,0-0.1,0-0.1c0,0,0-0.1,0-0.2
				c0,0,0-0.1,0.1-0.1c0-0.1,0-0.1,0.1-0.2c0.1-0.4,0.2-0.7,0.4-1.2c0.2-0.4,0.4-1,0.7-1.7c0.9,0.2,1.6,0.6,2.2,1.2
				c0.5,0.6,0.8,1.3,0.8,2.1V34c0,0.7-0.3,1.3-0.7,1.8c-0.4,0.6-0.8,0.8-1.3,0.8c-0.2,0-0.3,0-0.5-0.2c-0.1-0.1-0.2-0.2-0.3-0.4
				c0-0.1,0-0.1-0.1-0.2c0,0,0-0.1-0.1-0.1c0-0.1-0.1-0.1-0.2-0.2c-0.1,0-0.1-0.1-0.2-0.1h-0.2c-0.3,0.1-0.6,0.4-0.9,0.9
				c-0.3,0.5-0.5,1.1-0.5,1.8v0.2c0,0.9,0.4,1.7,1.1,2.3c0.7,0.6,1.6,0.9,2.6,0.9c1.7,0,3.1-0.7,4.4-2.2c1.2-1.4,1.8-3.1,1.8-5.1
				C33.1,32.8,32.5,31.3,31.4,30.1z M39.7,35.8c-2.1,0-3.8,0.7-5.2,2.1c-1.4,1.4-2.2,3-2.2,5c0,1.4,0.5,2.5,1.4,3.5
				c1,0.9,2.2,1.3,3.7,1.3c2.1,0,3.8-0.7,5.2-2c1.4-1.4,2.1-3,2.1-5c0-1.4-0.5-2.6-1.4-3.5C42.5,36.2,41.3,35.8,39.7,35.8z
				 M39.7,40.4c-0.2,1.3-0.5,2.4-0.9,3.3c-0.4,0.9-0.8,1.4-1.1,1.3c-0.2,0-0.4-0.3-0.5-0.8c-0.1-0.5-0.1-1.1,0-1.8c0,0,0-0.1,0-0.1
				v-0.1c0.2-1.1,0.5-2,0.8-2.9c0.4-0.9,0.7-1.4,1-1.5c0,0,0,0,0.1,0h0.1c0.2,0.1,0.4,0.3,0.4,0.8C39.9,39.1,39.8,39.7,39.7,40.4z
				 M58.7,36.4c-0.4-0.4-1-0.6-1.7-0.6c-0.2,0-0.3,0-0.5,0c-0.2,0-0.4,0.1-0.6,0.1c-0.2,0.1-0.5,0.2-0.7,0.3s-0.5,0.3-0.7,0.4
				c-0.1,0-0.1,0.1-0.2,0.1c0,0-0.1,0.1-0.1,0.1c0,0,0,0-0.1,0c-0.1,0.1-0.3,0.3-0.5,0.4c-0.2,0.2-0.5,0.5-1,0.9
				c0-0.3,0.1-0.5,0.1-0.6c0-0.1,0-0.2,0-0.3v-0.1c0-0.4-0.2-0.8-0.5-1c-0.3-0.2-0.7-0.4-1.3-0.4c-0.3,0-0.6,0-0.9,0.1
				c-0.3,0.1-0.6,0.2-1,0.3c-0.4,0.2-0.8,0.4-1.2,0.6c-0.4,0.2-0.7,0.5-1,0.7c0.1,0,0.1,0.1,0.2,0.1c0,0,0.1,0.1,0.1,0.1
				c0.1,0.1,0.2,0.2,0.3,0.3c0.1,0.1,0.1,0.3,0.1,0.5v0.2c0,0.1,0,0.1,0,0.2c0,0.1,0,0.2,0,0.2c0,0.1,0,0.2,0,0.2l-1.8,7.8l-0.1,0.1
				h5.1l0.4-2.2l0.3-1.2c0.3-1.1,0.6-2,1.1-2.7c0.5-0.7,1.1-1.2,1.8-1.7c0,0.1,0,0.2,0,0.3c0,0.1,0,0.1,0,0.2c0,0.4,0.2,0.7,0.6,1
				c0.4,0.3,0.8,0.4,1.3,0.4c0.8,0,1.6-0.3,2.2-1c0.6-0.7,1-1.5,1-2.4C59.3,37.3,59.1,36.8,58.7,36.4z M74.4,44.2
				c-0.1-0.1-0.2-0.2-0.3-0.2c-0.1,0-0.2,0-0.3,0.1c-0.1,0-0.3,0.1-0.5,0.2c-0.1,0-0.2,0-0.3,0.1c-0.1,0-0.2,0-0.3,0
				c-0.3,0-0.5-0.1-0.7-0.2c-0.2-0.2-0.3-0.3-0.2-0.6c0-0.1,0-0.2,0-0.3c0-0.1,0.1-0.3,0.1-0.5l0.9-3.8c0,0,0-0.1,0-0.1
				c0,0,0-0.1,0-0.1c0-0.1,0-0.2,0-0.3c0-0.1,0-0.2,0-0.3c0-0.7-0.3-1.3-0.8-1.8c-0.5-0.5-1.2-0.7-2-0.7c-0.7,0-1.4,0.1-2.1,0.4
				c-0.7,0.3-1.4,0.7-2.1,1.3c0-0.6-0.2-1-0.5-1.3c-0.3-0.3-0.7-0.4-1.3-0.4c-0.6,0-1.3,0.1-2,0.4c-0.7,0.3-1.4,0.7-2.2,1.3
				c0.2,0.1,0.4,0.3,0.5,0.4c0.1,0.1,0.2,0.3,0.2,0.6c0,0.1,0,0.3,0,0.5c0,0.2-0.1,0.4-0.1,0.7l-1.7,7.8l0,0.1h4.8l0.5-2l0.8-3.6
				c0.1-0.6,0.4-1,0.6-1.4c0.3-0.3,0.6-0.5,1-0.5c0.3,0,0.5,0.1,0.6,0.2c0.2,0.1,0.2,0.3,0.2,0.6c0,0.1,0,0.1,0,0.2
				c0,0.1,0,0.2,0,0.3c0,0,0,0,0,0.1c0,0,0,0.1,0,0.1l-0.7,3.2c0,0,0,0.1,0,0.1c0,0,0,0.1,0,0.1c0,0.1,0,0.2,0,0.2
				c0,0.1,0,0.1,0,0.2c0,0.7,0.3,1.3,0.8,1.8c0.5,0.4,1.2,0.7,2.1,0.7h0.3c0.1,0,0.2,0,0.3,0c0.5,0,1.1-0.2,1.6-0.3
				c0.5-0.2,1-0.4,1.5-0.7c0.5-0.3,0.9-0.7,1.2-1c0.3-0.3,0.4-0.6,0.4-0.9C74.5,44.4,74.5,44.3,74.4,44.2z"/>
		</g>
	</g>
	<g id="porn_copy_10_">
		<g>
			<path class="st10" d="M31.6,31.1c-1.2-1.2-2.7-1.9-4.6-2.2c0.3-0.5,0.7-0.8,1.1-1.1c0.4-0.3,0.8-0.4,1.3-0.5c0,0,0.1,0,0.1,0h0.3
				c0.1,0,0.2,0.1,0.3,0.1c0.1,0.1,0.2,0.1,0.2,0.2c0,0,0,0,0,0.1c0,0.1,0,0.2,0.1,0.3c0,0.1,0,0.1,0.1,0.2c0.1,0.1,0.1,0.2,0.2,0.2
				c0.1,0,0.2,0,0.3,0c0.7,0,1.2-0.2,1.8-0.7c0.5-0.4,0.8-0.9,0.8-1.5c0-0.5-0.2-0.9-0.7-1.2c-0.4-0.3-1-0.5-1.7-0.5
				c-1.3,0-2.6,0.3-3.7,1s-2.3,1.7-3.4,3.2h-0.6c-3.3,0-6.1,0.7-8.5,2.1c-2.4,1.4-3.5,3-3.5,5c0,0.9,0.4,1.7,1.1,2.3
				c0.7,0.6,1.6,0.9,2.6,0.9c0.8,0,1.5-0.2,2.2-0.5c0.7-0.3,1.3-0.8,1.9-1.5c0.3-0.3,0.5-0.6,0.6-0.8c0.1-0.3,0.2-0.5,0.2-0.7
				c0-0.1,0-0.2-0.1-0.3c0-0.1-0.1-0.1-0.2-0.1c-0.2-0.1-0.3-0.1-0.4-0.2c-0.1,0-0.2-0.1-0.3-0.2c-0.1-0.1-0.2-0.2-0.2-0.2
				c0-0.1-0.1-0.2-0.1-0.3c0-0.1,0-0.2,0.1-0.3c0.1-0.1,0.1-0.3,0.2-0.4c0.1-0.2,0.2-0.4,0.4-0.5c0.2-0.2,0.4-0.3,0.5-0.4
				c0,0,0.1-0.1,0.1-0.1c0.1,0,0.1,0,0.2-0.1c0.2-0.1,0.5-0.2,0.7-0.3c0.2-0.1,0.6-0.1,0.9-0.2c0.1,0,0.2,0,0.2,0c0.1,0,0.1,0,0.2,0
				c-0.1,0.1-0.1,0.3-0.2,0.4c0,0.1-0.1,0.2-0.1,0.2c-0.4,0.9-0.7,1.5-0.9,1.9c-0.2,0.4-0.4,0.8-0.5,1.2c0,0,0,0.1,0,0.1
				c0,0,0,0.1,0,0.1c-0.1,0.2-0.2,0.5-0.4,0.8c-0.1,0.3-0.3,0.7-0.5,1.3c-0.2,0.6-0.4,1.1-0.6,1.5c-0.2,0.4-0.4,0.8-0.5,1.1
				c-0.1,0.2-0.2,0.4-0.3,0.6s-0.2,0.4-0.4,0.5c-0.3,0.3-0.6,0.6-0.9,0.9c-0.4,0.3-0.7,0.4-1.1,0.6c-0.2,0.1-0.4,0.1-0.6,0.2
				c-0.2,0-0.4,0.1-0.5,0.1c-0.5,0-0.8-0.1-1.2-0.4c-0.3-0.3-0.5-0.6-0.5-1c0,0,0-0.1,0-0.1c0,0,0-0.1,0-0.2c0,0,0-0.1,0-0.1
				c0,0,0.1-0.1,0.1-0.1c0.2-0.3,0.3-0.4,0.4-0.5c0.1-0.1,0.1-0.2,0.1-0.2V40c0-0.3-0.2-0.5-0.5-0.7c-0.3-0.2-0.7-0.3-1.2-0.3
				c-2.2,0-4.1,0.7-5.7,2.1c-1.6,1.4-2.4,3.1-2.4,5c0,1.6,0.7,3,2,4.1c1.3,1.1,3,1.7,4.9,1.7c2.9,0,5.3-0.9,7.2-2.7
				c1.9-1.8,3.3-4.4,4.2-7.8l0.3-1.2l0.6-2.4c0.2-0.6,0.3-1.1,0.4-1.6c0.1-0.5,0.3-0.9,0.4-1.3c0,0,0-0.1,0-0.1c0,0,0-0.1,0-0.2
				c0,0,0-0.1,0.1-0.1c0-0.1,0-0.1,0.1-0.2c0.1-0.4,0.2-0.7,0.4-1.2c0.2-0.4,0.4-1,0.7-1.7c0.9,0.2,1.6,0.6,2.2,1.2
				c0.5,0.6,0.8,1.3,0.8,2.1V35c0,0.7-0.3,1.3-0.7,1.8c-0.4,0.6-0.8,0.8-1.3,0.8c-0.2,0-0.3,0-0.5-0.2c-0.1-0.1-0.2-0.2-0.3-0.4
				c0-0.1,0-0.1-0.1-0.2c0,0,0-0.1-0.1-0.1c0-0.1-0.1-0.1-0.2-0.2c-0.1,0-0.1-0.1-0.2-0.1h-0.2c-0.3,0.1-0.6,0.4-0.9,0.9
				c-0.3,0.5-0.5,1.1-0.5,1.8v0.2c0,0.9,0.4,1.7,1.1,2.3c0.7,0.6,1.6,0.9,2.6,0.9c1.7,0,3.1-0.7,4.4-2.2c1.2-1.4,1.8-3.1,1.8-5.1
				C33.4,33.7,32.8,32.3,31.6,31.1z M40,36.7c-2.1,0-3.8,0.7-5.2,2.1c-1.4,1.4-2.2,3-2.2,5c0,1.4,0.5,2.5,1.4,3.4
				c1,0.9,2.2,1.4,3.7,1.4c2.1,0,3.8-0.7,5.2-2c1.4-1.4,2.1-3,2.1-5c0-1.4-0.5-2.6-1.4-3.5C42.8,37.2,41.5,36.7,40,36.7z M40,41.4
				c-0.2,1.3-0.5,2.4-0.9,3.3c-0.4,0.9-0.8,1.4-1.1,1.3c-0.2,0-0.4-0.3-0.5-0.8c-0.1-0.5-0.1-1.1,0-1.8c0,0,0-0.1,0-0.1v-0.1
				c0.2-1.1,0.5-2,0.8-2.9c0.4-0.9,0.7-1.4,1-1.5c0,0,0,0,0.1,0h0.1c0.2,0.1,0.4,0.3,0.4,0.8C40.1,40.1,40.1,40.7,40,41.4z M59,37.4
				c-0.4-0.4-1-0.6-1.7-0.6c-0.2,0-0.3,0-0.5,0c-0.2,0-0.4,0.1-0.6,0.1c-0.2,0.1-0.5,0.1-0.7,0.3s-0.5,0.3-0.7,0.4
				c-0.1,0-0.1,0.1-0.2,0.1c0,0-0.1,0.1-0.1,0.1c0,0,0,0-0.1,0c-0.1,0.1-0.3,0.3-0.5,0.4c-0.2,0.2-0.5,0.5-1,0.9
				c0-0.3,0.1-0.5,0.1-0.6c0-0.1,0-0.2,0-0.3v-0.1c0-0.4-0.2-0.8-0.5-1c-0.3-0.2-0.7-0.4-1.3-0.4c-0.3,0-0.6,0-0.9,0.1
				c-0.3,0.1-0.6,0.2-1,0.3c-0.4,0.2-0.8,0.4-1.2,0.6c-0.4,0.2-0.7,0.5-1,0.7c0.1,0,0.1,0.1,0.2,0.1c0,0,0.1,0.1,0.1,0.1
				c0.1,0.1,0.2,0.2,0.3,0.3c0.1,0.1,0.1,0.3,0.1,0.5v0.2c0,0.1,0,0.2,0,0.2c0,0.1,0,0.2,0,0.2c0,0.1,0,0.2,0,0.2L46,48.2l-0.1,0.1
				H51l0.4-2.2l0.3-1.2c0.3-1.1,0.6-2,1.1-2.7c0.5-0.7,1.1-1.2,1.8-1.7c0,0.1,0,0.2,0,0.3c0,0.1,0,0.1,0,0.2c0,0.4,0.2,0.7,0.6,1
				c0.4,0.3,0.8,0.4,1.3,0.4c0.8,0,1.6-0.3,2.2-1c0.6-0.7,1-1.5,1-2.4C59.6,38.3,59.4,37.8,59,37.4z M74.7,45.2
				c-0.1-0.1-0.2-0.2-0.3-0.2c-0.1,0-0.2,0-0.3,0.1c-0.1,0-0.3,0.1-0.5,0.2c-0.1,0-0.2,0-0.3,0.1c-0.1,0-0.2,0-0.3,0
				c-0.3,0-0.5-0.1-0.7-0.2c-0.2-0.2-0.3-0.3-0.2-0.6c0-0.1,0-0.2,0-0.3c0-0.1,0.1-0.3,0.1-0.5l0.9-3.8c0,0,0-0.1,0-0.1
				c0,0,0-0.1,0-0.1c0-0.1,0-0.2,0-0.3c0-0.1,0-0.2,0-0.3c0-0.7-0.3-1.3-0.8-1.8c-0.5-0.5-1.2-0.7-2-0.7c-0.7,0-1.4,0.1-2.1,0.4
				c-0.7,0.3-1.4,0.7-2.1,1.3c0-0.6-0.2-1-0.5-1.3c-0.3-0.3-0.7-0.4-1.3-0.4c-0.6,0-1.3,0.1-2,0.4c-0.7,0.3-1.4,0.7-2.2,1.3
				c0.2,0.1,0.4,0.3,0.5,0.4c0.1,0.1,0.2,0.3,0.2,0.6c0,0.1,0,0.3,0,0.5c0,0.2-0.1,0.4-0.1,0.7l-1.7,7.8l0,0.1h4.8l0.5-2l0.8-3.6
				c0.1-0.6,0.4-1,0.6-1.3c0.3-0.3,0.6-0.5,1-0.5c0.3,0,0.5,0.1,0.6,0.2c0.2,0.1,0.2,0.3,0.2,0.6c0,0.1,0,0.1,0,0.2
				c0,0.1,0,0.2,0,0.3c0,0,0,0,0,0.1c0,0,0,0.1,0,0.1l-0.7,3.2c0,0,0,0.1,0,0.1c0,0,0,0.1,0,0.1c0,0.1,0,0.2,0,0.2
				c0,0.1,0,0.1,0,0.2c0,0.7,0.3,1.3,0.8,1.8c0.5,0.4,1.2,0.7,2.1,0.7h0.3c0.1,0,0.2,0,0.3,0c0.5,0,1.1-0.1,1.6-0.3
				c0.5-0.2,1-0.4,1.5-0.7c0.5-0.3,0.9-0.7,1.2-1c0.3-0.3,0.4-0.6,0.4-0.9C74.8,45.4,74.8,45.3,74.7,45.2z"/>
		</g>
		<g>
			<path class="st6" d="M31.6,31.1c-1.2-1.2-2.7-1.9-4.6-2.2c0.3-0.5,0.7-0.8,1.1-1.1c0.4-0.3,0.8-0.4,1.3-0.5c0,0,0.1,0,0.1,0h0.3
				c0.1,0,0.2,0.1,0.3,0.1c0.1,0.1,0.2,0.1,0.2,0.2c0,0,0,0,0,0.1c0,0.1,0,0.2,0.1,0.3c0,0.1,0,0.1,0.1,0.2c0.1,0.1,0.1,0.2,0.2,0.2
				c0.1,0,0.2,0,0.3,0c0.7,0,1.2-0.2,1.8-0.7c0.5-0.4,0.8-0.9,0.8-1.5c0-0.5-0.2-0.9-0.7-1.2c-0.4-0.3-1-0.5-1.7-0.5
				c-1.3,0-2.6,0.3-3.7,1s-2.3,1.7-3.4,3.2h-0.6c-3.3,0-6.1,0.7-8.5,2.1c-2.4,1.4-3.5,3-3.5,5c0,0.9,0.4,1.7,1.1,2.3
				c0.7,0.6,1.6,0.9,2.6,0.9c0.8,0,1.5-0.2,2.2-0.5c0.7-0.3,1.3-0.8,1.9-1.5c0.3-0.3,0.5-0.6,0.6-0.8c0.1-0.3,0.2-0.5,0.2-0.7
				c0-0.1,0-0.2-0.1-0.3c0-0.1-0.1-0.1-0.2-0.1c-0.2-0.1-0.3-0.1-0.4-0.2c-0.1,0-0.2-0.1-0.3-0.2c-0.1-0.1-0.2-0.2-0.2-0.2
				c0-0.1-0.1-0.2-0.1-0.3c0-0.1,0-0.2,0.1-0.3c0.1-0.1,0.1-0.3,0.2-0.4c0.1-0.2,0.2-0.4,0.4-0.5c0.2-0.2,0.4-0.3,0.5-0.4
				c0,0,0.1-0.1,0.1-0.1c0.1,0,0.1,0,0.2-0.1c0.2-0.1,0.5-0.2,0.7-0.3c0.2-0.1,0.6-0.1,0.9-0.2c0.1,0,0.2,0,0.2,0c0.1,0,0.1,0,0.2,0
				c-0.1,0.1-0.1,0.3-0.2,0.4c0,0.1-0.1,0.2-0.1,0.2c-0.4,0.9-0.7,1.5-0.9,1.9c-0.2,0.4-0.4,0.8-0.5,1.2c0,0,0,0.1,0,0.1
				c0,0,0,0.1,0,0.1c-0.1,0.2-0.2,0.5-0.4,0.8c-0.1,0.3-0.3,0.7-0.5,1.3c-0.2,0.6-0.4,1.1-0.6,1.5c-0.2,0.4-0.4,0.8-0.5,1.1
				c-0.1,0.2-0.2,0.4-0.3,0.6s-0.2,0.4-0.4,0.5c-0.3,0.3-0.6,0.6-0.9,0.9c-0.4,0.3-0.7,0.4-1.1,0.6c-0.2,0.1-0.4,0.1-0.6,0.2
				c-0.2,0-0.4,0.1-0.5,0.1c-0.5,0-0.8-0.1-1.2-0.4c-0.3-0.3-0.5-0.6-0.5-1c0,0,0-0.1,0-0.1c0,0,0-0.1,0-0.2c0,0,0-0.1,0-0.1
				c0,0,0.1-0.1,0.1-0.1c0.2-0.3,0.3-0.4,0.4-0.5c0.1-0.1,0.1-0.2,0.1-0.2V40c0-0.3-0.2-0.5-0.5-0.7c-0.3-0.2-0.7-0.3-1.2-0.3
				c-2.2,0-4.1,0.7-5.7,2.1c-1.6,1.4-2.4,3.1-2.4,5c0,1.6,0.7,3,2,4.1c1.3,1.1,3,1.7,4.9,1.7c2.9,0,5.3-0.9,7.2-2.7
				c1.9-1.8,3.3-4.4,4.2-7.8l0.3-1.2l0.6-2.4c0.2-0.6,0.3-1.1,0.4-1.6c0.1-0.5,0.3-0.9,0.4-1.3c0,0,0-0.1,0-0.1c0,0,0-0.1,0-0.2
				c0,0,0-0.1,0.1-0.1c0-0.1,0-0.1,0.1-0.2c0.1-0.4,0.2-0.7,0.4-1.2c0.2-0.4,0.4-1,0.7-1.7c0.9,0.2,1.6,0.6,2.2,1.2
				c0.5,0.6,0.8,1.3,0.8,2.1V35c0,0.7-0.3,1.3-0.7,1.8c-0.4,0.6-0.8,0.8-1.3,0.8c-0.2,0-0.3,0-0.5-0.2c-0.1-0.1-0.2-0.2-0.3-0.4
				c0-0.1,0-0.1-0.1-0.2c0,0,0-0.1-0.1-0.1c0-0.1-0.1-0.1-0.2-0.2c-0.1,0-0.1-0.1-0.2-0.1h-0.2c-0.3,0.1-0.6,0.4-0.9,0.9
				c-0.3,0.5-0.5,1.1-0.5,1.8v0.2c0,0.9,0.4,1.7,1.1,2.3c0.7,0.6,1.6,0.9,2.6,0.9c1.7,0,3.1-0.7,4.4-2.2c1.2-1.4,1.8-3.1,1.8-5.1
				C33.4,33.7,32.8,32.3,31.6,31.1z M40,36.7c-2.1,0-3.8,0.7-5.2,2.1c-1.4,1.4-2.2,3-2.2,5c0,1.4,0.5,2.5,1.4,3.4
				c1,0.9,2.2,1.4,3.7,1.4c2.1,0,3.8-0.7,5.2-2c1.4-1.4,2.1-3,2.1-5c0-1.4-0.5-2.6-1.4-3.5C42.8,37.2,41.5,36.7,40,36.7z M40,41.4
				c-0.2,1.3-0.5,2.4-0.9,3.3c-0.4,0.9-0.8,1.4-1.1,1.3c-0.2,0-0.4-0.3-0.5-0.8c-0.1-0.5-0.1-1.1,0-1.8c0,0,0-0.1,0-0.1v-0.1
				c0.2-1.1,0.5-2,0.8-2.9c0.4-0.9,0.7-1.4,1-1.5c0,0,0,0,0.1,0h0.1c0.2,0.1,0.4,0.3,0.4,0.8C40.1,40.1,40.1,40.7,40,41.4z M59,37.4
				c-0.4-0.4-1-0.6-1.7-0.6c-0.2,0-0.3,0-0.5,0c-0.2,0-0.4,0.1-0.6,0.1c-0.2,0.1-0.5,0.1-0.7,0.3s-0.5,0.3-0.7,0.4
				c-0.1,0-0.1,0.1-0.2,0.1c0,0-0.1,0.1-0.1,0.1c0,0,0,0-0.1,0c-0.1,0.1-0.3,0.3-0.5,0.4c-0.2,0.2-0.5,0.5-1,0.9
				c0-0.3,0.1-0.5,0.1-0.6c0-0.1,0-0.2,0-0.3v-0.1c0-0.4-0.2-0.8-0.5-1c-0.3-0.2-0.7-0.4-1.3-0.4c-0.3,0-0.6,0-0.9,0.1
				c-0.3,0.1-0.6,0.2-1,0.3c-0.4,0.2-0.8,0.4-1.2,0.6c-0.4,0.2-0.7,0.5-1,0.7c0.1,0,0.1,0.1,0.2,0.1c0,0,0.1,0.1,0.1,0.1
				c0.1,0.1,0.2,0.2,0.3,0.3c0.1,0.1,0.1,0.3,0.1,0.5v0.2c0,0.1,0,0.2,0,0.2c0,0.1,0,0.2,0,0.2c0,0.1,0,0.2,0,0.2L46,48.2l-0.1,0.1
				H51l0.4-2.2l0.3-1.2c0.3-1.1,0.6-2,1.1-2.7c0.5-0.7,1.1-1.2,1.8-1.7c0,0.1,0,0.2,0,0.3c0,0.1,0,0.1,0,0.2c0,0.4,0.2,0.7,0.6,1
				c0.4,0.3,0.8,0.4,1.3,0.4c0.8,0,1.6-0.3,2.2-1c0.6-0.7,1-1.5,1-2.4C59.6,38.3,59.4,37.8,59,37.4z M74.7,45.2
				c-0.1-0.1-0.2-0.2-0.3-0.2c-0.1,0-0.2,0-0.3,0.1c-0.1,0-0.3,0.1-0.5,0.2c-0.1,0-0.2,0-0.3,0.1c-0.1,0-0.2,0-0.3,0
				c-0.3,0-0.5-0.1-0.7-0.2c-0.2-0.2-0.3-0.3-0.2-0.6c0-0.1,0-0.2,0-0.3c0-0.1,0.1-0.3,0.1-0.5l0.9-3.8c0,0,0-0.1,0-0.1
				c0,0,0-0.1,0-0.1c0-0.1,0-0.2,0-0.3c0-0.1,0-0.2,0-0.3c0-0.7-0.3-1.3-0.8-1.8c-0.5-0.5-1.2-0.7-2-0.7c-0.7,0-1.4,0.1-2.1,0.4
				c-0.7,0.3-1.4,0.7-2.1,1.3c0-0.6-0.2-1-0.5-1.3c-0.3-0.3-0.7-0.4-1.3-0.4c-0.6,0-1.3,0.1-2,0.4c-0.7,0.3-1.4,0.7-2.2,1.3
				c0.2,0.1,0.4,0.3,0.5,0.4c0.1,0.1,0.2,0.3,0.2,0.6c0,0.1,0,0.3,0,0.5c0,0.2-0.1,0.4-0.1,0.7l-1.7,7.8l0,0.1h4.8l0.5-2l0.8-3.6
				c0.1-0.6,0.4-1,0.6-1.3c0.3-0.3,0.6-0.5,1-0.5c0.3,0,0.5,0.1,0.6,0.2c0.2,0.1,0.2,0.3,0.2,0.6c0,0.1,0,0.1,0,0.2
				c0,0.1,0,0.2,0,0.3c0,0,0,0,0,0.1c0,0,0,0.1,0,0.1l-0.7,3.2c0,0,0,0.1,0,0.1c0,0,0,0.1,0,0.1c0,0.1,0,0.2,0,0.2
				c0,0.1,0,0.1,0,0.2c0,0.7,0.3,1.3,0.8,1.8c0.5,0.4,1.2,0.7,2.1,0.7h0.3c0.1,0,0.2,0,0.3,0c0.5,0,1.1-0.1,1.6-0.3
				c0.5-0.2,1-0.4,1.5-0.7c0.5-0.3,0.9-0.7,1.2-1c0.3-0.3,0.4-0.6,0.4-0.9C74.8,45.4,74.8,45.3,74.7,45.2z"/>
		</g>
	</g>
	<g id="porn_copy_8_">
		<g>
			<path class="st11" d="M31.6,31.1c-1.2-1.2-2.7-1.9-4.6-2.2c0.3-0.5,0.7-0.8,1.1-1.1c0.4-0.3,0.8-0.4,1.3-0.5c0,0,0.1,0,0.1,0h0.3
				c0.1,0,0.2,0.1,0.3,0.1c0.1,0.1,0.2,0.1,0.2,0.2c0,0,0,0,0,0.1c0,0.1,0,0.2,0.1,0.3c0,0.1,0,0.1,0.1,0.2c0.1,0.1,0.1,0.2,0.2,0.2
				c0.1,0,0.2,0,0.3,0c0.7,0,1.2-0.2,1.8-0.7c0.5-0.4,0.8-0.9,0.8-1.5c0-0.5-0.2-0.9-0.7-1.2c-0.4-0.3-1-0.5-1.7-0.5
				c-1.3,0-2.6,0.3-3.7,1s-2.3,1.7-3.4,3.2h-0.6c-3.3,0-6.1,0.7-8.5,2.1c-2.4,1.4-3.5,3-3.5,5c0,0.9,0.4,1.7,1.1,2.3
				c0.7,0.6,1.6,0.9,2.6,0.9c0.8,0,1.5-0.2,2.2-0.5c0.7-0.3,1.3-0.8,1.9-1.5c0.3-0.3,0.5-0.6,0.6-0.8c0.1-0.3,0.2-0.5,0.2-0.7
				c0-0.1,0-0.2-0.1-0.3c0-0.1-0.1-0.1-0.2-0.1c-0.2-0.1-0.3-0.1-0.4-0.2c-0.1,0-0.2-0.1-0.3-0.2c-0.1-0.1-0.2-0.2-0.2-0.2
				c0-0.1-0.1-0.2-0.1-0.3c0-0.1,0-0.2,0.1-0.3c0.1-0.1,0.1-0.3,0.2-0.4c0.1-0.2,0.2-0.4,0.4-0.5c0.2-0.2,0.4-0.3,0.5-0.4
				c0,0,0.1-0.1,0.1-0.1c0.1,0,0.1,0,0.2-0.1c0.2-0.1,0.5-0.2,0.7-0.3c0.2-0.1,0.6-0.1,0.9-0.2c0.1,0,0.2,0,0.2,0c0.1,0,0.1,0,0.2,0
				c-0.1,0.1-0.1,0.3-0.2,0.4c0,0.1-0.1,0.2-0.1,0.2c-0.4,0.9-0.7,1.5-0.9,1.9c-0.2,0.4-0.4,0.8-0.5,1.2c0,0,0,0.1,0,0.1
				c0,0,0,0.1,0,0.1c-0.1,0.2-0.2,0.5-0.4,0.8c-0.1,0.3-0.3,0.7-0.5,1.3c-0.2,0.6-0.4,1.1-0.6,1.5c-0.2,0.4-0.4,0.8-0.5,1.1
				c-0.1,0.2-0.2,0.4-0.3,0.6s-0.2,0.4-0.4,0.5c-0.3,0.3-0.6,0.6-0.9,0.9c-0.4,0.3-0.7,0.4-1.1,0.6c-0.2,0.1-0.4,0.1-0.6,0.2
				c-0.2,0-0.4,0.1-0.5,0.1c-0.5,0-0.8-0.1-1.2-0.4c-0.3-0.3-0.5-0.6-0.5-1c0,0,0-0.1,0-0.1c0,0,0-0.1,0-0.2c0,0,0-0.1,0-0.1
				c0,0,0.1-0.1,0.1-0.1c0.2-0.3,0.3-0.4,0.4-0.5c0.1-0.1,0.1-0.2,0.1-0.2V40c0-0.3-0.2-0.5-0.5-0.7c-0.3-0.2-0.7-0.3-1.2-0.3
				c-2.2,0-4.1,0.7-5.7,2.1c-1.6,1.4-2.4,3.1-2.4,5c0,1.6,0.7,3,2,4.1c1.3,1.1,3,1.7,4.9,1.7c2.9,0,5.3-0.9,7.2-2.7
				c1.9-1.8,3.3-4.4,4.2-7.8l0.3-1.2l0.6-2.4c0.2-0.6,0.3-1.1,0.4-1.6c0.1-0.5,0.3-0.9,0.4-1.3c0,0,0-0.1,0-0.1c0,0,0-0.1,0-0.2
				c0,0,0-0.1,0.1-0.1c0-0.1,0-0.1,0.1-0.2c0.1-0.4,0.2-0.7,0.4-1.2c0.2-0.4,0.4-1,0.7-1.7c0.9,0.2,1.6,0.6,2.2,1.2
				c0.5,0.6,0.8,1.3,0.8,2.1V35c0,0.7-0.3,1.3-0.7,1.8c-0.4,0.6-0.8,0.8-1.3,0.8c-0.2,0-0.3,0-0.5-0.2c-0.1-0.1-0.2-0.2-0.3-0.4
				c0-0.1,0-0.1-0.1-0.2c0,0,0-0.1-0.1-0.1c0-0.1-0.1-0.1-0.2-0.2c-0.1,0-0.1-0.1-0.2-0.1h-0.2c-0.3,0.1-0.6,0.4-0.9,0.9
				c-0.3,0.5-0.5,1.1-0.5,1.8v0.2c0,0.9,0.4,1.7,1.1,2.3c0.7,0.6,1.6,0.9,2.6,0.9c1.7,0,3.1-0.7,4.4-2.2c1.2-1.4,1.8-3.1,1.8-5.1
				C33.4,33.7,32.8,32.3,31.6,31.1z M40,36.7c-2.1,0-3.8,0.7-5.2,2.1c-1.4,1.4-2.2,3-2.2,5c0,1.4,0.5,2.5,1.4,3.4
				c1,0.9,2.2,1.4,3.7,1.4c2.1,0,3.8-0.7,5.2-2c1.4-1.4,2.1-3,2.1-5c0-1.4-0.5-2.6-1.4-3.5C42.8,37.2,41.5,36.7,40,36.7z M40,41.4
				c-0.2,1.3-0.5,2.4-0.9,3.3c-0.4,0.9-0.8,1.4-1.1,1.3c-0.2,0-0.4-0.3-0.5-0.8c-0.1-0.5-0.1-1.1,0-1.8c0,0,0-0.1,0-0.1v-0.1
				c0.2-1.1,0.5-2,0.8-2.9c0.4-0.9,0.7-1.4,1-1.5c0,0,0,0,0.1,0h0.1c0.2,0.1,0.4,0.3,0.4,0.8C40.1,40.1,40.1,40.7,40,41.4z M59,37.4
				c-0.4-0.4-1-0.6-1.7-0.6c-0.2,0-0.3,0-0.5,0c-0.2,0-0.4,0.1-0.6,0.1c-0.2,0.1-0.5,0.1-0.7,0.3s-0.5,0.3-0.7,0.4
				c-0.1,0-0.1,0.1-0.2,0.1c0,0-0.1,0.1-0.1,0.1c0,0,0,0-0.1,0c-0.1,0.1-0.3,0.3-0.5,0.4c-0.2,0.2-0.5,0.5-1,0.9
				c0-0.3,0.1-0.5,0.1-0.6c0-0.1,0-0.2,0-0.3v-0.1c0-0.4-0.2-0.8-0.5-1c-0.3-0.2-0.7-0.4-1.3-0.4c-0.3,0-0.6,0-0.9,0.1
				c-0.3,0.1-0.6,0.2-1,0.3c-0.4,0.2-0.8,0.4-1.2,0.6c-0.4,0.2-0.7,0.5-1,0.7c0.1,0,0.1,0.1,0.2,0.1c0,0,0.1,0.1,0.1,0.1
				c0.1,0.1,0.2,0.2,0.3,0.3c0.1,0.1,0.1,0.3,0.1,0.5v0.2c0,0.1,0,0.2,0,0.2c0,0.1,0,0.2,0,0.2c0,0.1,0,0.2,0,0.2L46,48.2l-0.1,0.1
				H51l0.4-2.2l0.3-1.2c0.3-1.1,0.6-2,1.1-2.7c0.5-0.7,1.1-1.2,1.8-1.7c0,0.1,0,0.2,0,0.3c0,0.1,0,0.1,0,0.2c0,0.4,0.2,0.7,0.6,1
				c0.4,0.3,0.8,0.4,1.3,0.4c0.8,0,1.6-0.3,2.2-1c0.6-0.7,1-1.5,1-2.4C59.6,38.3,59.4,37.8,59,37.4z M74.7,45.2
				c-0.1-0.1-0.2-0.2-0.3-0.2c-0.1,0-0.2,0-0.3,0.1c-0.1,0-0.3,0.1-0.5,0.2c-0.1,0-0.2,0-0.3,0.1c-0.1,0-0.2,0-0.3,0
				c-0.3,0-0.5-0.1-0.7-0.2c-0.2-0.2-0.3-0.3-0.2-0.6c0-0.1,0-0.2,0-0.3c0-0.1,0.1-0.3,0.1-0.5l0.9-3.8c0,0,0-0.1,0-0.1
				c0,0,0-0.1,0-0.1c0-0.1,0-0.2,0-0.3c0-0.1,0-0.2,0-0.3c0-0.7-0.3-1.3-0.8-1.8c-0.5-0.5-1.2-0.7-2-0.7c-0.7,0-1.4,0.1-2.1,0.4
				c-0.7,0.3-1.4,0.7-2.1,1.3c0-0.6-0.2-1-0.5-1.3c-0.3-0.3-0.7-0.4-1.3-0.4c-0.6,0-1.3,0.1-2,0.4c-0.7,0.3-1.4,0.7-2.2,1.3
				c0.2,0.1,0.4,0.3,0.5,0.4c0.1,0.1,0.2,0.3,0.2,0.6c0,0.1,0,0.3,0,0.5c0,0.2-0.1,0.4-0.1,0.7l-1.7,7.8l0,0.1h4.8l0.5-2l0.8-3.6
				c0.1-0.6,0.4-1,0.6-1.3c0.3-0.3,0.6-0.5,1-0.5c0.3,0,0.5,0.1,0.6,0.2c0.2,0.1,0.2,0.3,0.2,0.6c0,0.1,0,0.1,0,0.2
				c0,0.1,0,0.2,0,0.3c0,0,0,0,0,0.1c0,0,0,0.1,0,0.1l-0.7,3.2c0,0,0,0.1,0,0.1c0,0,0,0.1,0,0.1c0,0.1,0,0.2,0,0.2
				c0,0.1,0,0.1,0,0.2c0,0.7,0.3,1.3,0.8,1.8c0.5,0.4,1.2,0.7,2.1,0.7h0.3c0.1,0,0.2,0,0.3,0c0.5,0,1.1-0.1,1.6-0.3
				c0.5-0.2,1-0.4,1.5-0.7c0.5-0.3,0.9-0.7,1.2-1c0.3-0.3,0.4-0.6,0.4-0.9C74.8,45.4,74.8,45.3,74.7,45.2z"/>
		</g>
	</g>
	<g id="porn_copy_5_">
		<g>
			<path class="st12" d="M32.1,31.1c-1.2-1.2-2.7-1.9-4.6-2.2c0.3-0.5,0.7-0.8,1.1-1.1c0.4-0.3,0.8-0.4,1.3-0.5c0,0,0.1,0,0.1,0h0.3
				c0.1,0,0.2,0.1,0.3,0.1c0.1,0.1,0.2,0.1,0.2,0.2c0,0,0,0,0,0.1c0,0.1,0,0.2,0.1,0.3c0,0.1,0,0.1,0.1,0.2c0.1,0.1,0.1,0.2,0.2,0.2
				c0.1,0,0.2,0,0.3,0c0.7,0,1.2-0.2,1.8-0.7c0.5-0.4,0.8-0.9,0.8-1.5c0-0.5-0.2-0.9-0.7-1.2c-0.4-0.3-1-0.5-1.7-0.5
				c-1.3,0-2.6,0.3-3.7,1s-2.3,1.7-3.4,3.2h-0.6c-3.3,0-6.1,0.7-8.5,2.1c-2.4,1.4-3.5,3-3.5,5c0,0.9,0.4,1.7,1.1,2.3
				c0.7,0.6,1.6,0.9,2.6,0.9c0.8,0,1.5-0.2,2.2-0.5c0.7-0.3,1.3-0.8,1.9-1.5c0.3-0.3,0.5-0.6,0.6-0.8c0.1-0.3,0.2-0.5,0.2-0.7
				c0-0.1,0-0.2-0.1-0.3c0-0.1-0.1-0.1-0.2-0.1c-0.2-0.1-0.3-0.1-0.4-0.2c-0.1,0-0.2-0.1-0.3-0.2c-0.1-0.1-0.2-0.2-0.2-0.2
				c0-0.1-0.1-0.2-0.1-0.3c0-0.1,0-0.2,0.1-0.3c0.1-0.1,0.1-0.3,0.2-0.4c0.1-0.2,0.2-0.4,0.4-0.5c0.2-0.2,0.4-0.3,0.5-0.4
				c0,0,0.1-0.1,0.1-0.1c0.1,0,0.1,0,0.2-0.1c0.2-0.1,0.5-0.2,0.7-0.3c0.2-0.1,0.6-0.1,0.9-0.2c0.1,0,0.2,0,0.2,0c0.1,0,0.1,0,0.2,0
				c-0.1,0.1-0.1,0.3-0.2,0.4c0,0.1-0.1,0.2-0.1,0.2c-0.4,0.9-0.7,1.5-0.9,1.9c-0.2,0.4-0.4,0.8-0.5,1.2c0,0,0,0.1,0,0.1
				c0,0,0,0.1,0,0.1c-0.1,0.2-0.2,0.5-0.4,0.8c-0.1,0.3-0.3,0.7-0.5,1.3c-0.2,0.6-0.4,1.1-0.6,1.5c-0.2,0.4-0.4,0.8-0.5,1.1
				c-0.1,0.2-0.2,0.4-0.3,0.6s-0.2,0.4-0.4,0.5c-0.3,0.3-0.6,0.6-0.9,0.9c-0.4,0.3-0.7,0.4-1.1,0.6c-0.2,0.1-0.4,0.1-0.6,0.2
				c-0.2,0-0.4,0.1-0.5,0.1c-0.5,0-0.8-0.1-1.2-0.4c-0.3-0.3-0.5-0.6-0.5-1c0,0,0-0.1,0-0.1c0,0,0-0.1,0-0.2c0,0,0-0.1,0-0.1
				c0,0,0.1-0.1,0.1-0.1c0.2-0.3,0.3-0.4,0.4-0.5c0.1-0.1,0.1-0.2,0.1-0.2V40c0-0.3-0.2-0.5-0.5-0.7c-0.3-0.2-0.7-0.3-1.2-0.3
				c-2.2,0-4.1,0.7-5.7,2.1c-1.6,1.4-2.4,3.1-2.4,5c0,1.6,0.7,3,2,4.1c1.3,1.1,3,1.7,4.9,1.7c2.9,0,5.3-0.9,7.2-2.7
				c1.9-1.8,3.3-4.4,4.2-7.8l0.3-1.2l0.6-2.4c0.2-0.6,0.3-1.1,0.4-1.6c0.1-0.5,0.3-0.9,0.4-1.3c0,0,0-0.1,0-0.1c0,0,0-0.1,0-0.2
				c0,0,0-0.1,0.1-0.1c0-0.1,0-0.1,0.1-0.2c0.1-0.4,0.2-0.7,0.4-1.2c0.2-0.4,0.4-1,0.7-1.7c0.9,0.2,1.6,0.6,2.2,1.2
				c0.5,0.6,0.8,1.3,0.8,2.1V35c0,0.7-0.3,1.3-0.7,1.8c-0.4,0.6-0.8,0.8-1.3,0.8c-0.2,0-0.3,0-0.5-0.2c-0.1-0.1-0.2-0.2-0.3-0.4
				c0-0.1,0-0.1-0.1-0.2c0,0,0-0.1-0.1-0.1c0-0.1-0.1-0.1-0.2-0.2c-0.1,0-0.1-0.1-0.2-0.1h-0.2c-0.3,0.1-0.6,0.4-0.9,0.9
				c-0.3,0.5-0.5,1.1-0.5,1.8v0.2c0,0.9,0.4,1.7,1.1,2.3c0.7,0.6,1.6,0.9,2.6,0.9c1.7,0,3.1-0.7,4.4-2.2c1.2-1.4,1.8-3.1,1.8-5.1
				C33.9,33.7,33.3,32.3,32.1,31.1z M40.5,36.7c-2.1,0-3.8,0.7-5.2,2.1c-1.4,1.4-2.2,3-2.2,5c0,1.4,0.5,2.5,1.4,3.4
				c1,0.9,2.2,1.4,3.7,1.4c2.1,0,3.8-0.7,5.2-2c1.4-1.4,2.1-3,2.1-5c0-1.4-0.5-2.6-1.4-3.5C43.3,37.2,42,36.7,40.5,36.7z M40.5,41.4
				c-0.2,1.3-0.5,2.4-0.9,3.3c-0.4,0.9-0.8,1.4-1.1,1.3c-0.2,0-0.4-0.3-0.5-0.8c-0.1-0.5-0.1-1.1,0-1.8c0,0,0-0.1,0-0.1v-0.1
				c0.2-1.1,0.5-2,0.8-2.9c0.4-0.9,0.7-1.4,1-1.5c0,0,0,0,0.1,0h0.1c0.2,0.1,0.4,0.3,0.4,0.8C40.6,40.1,40.6,40.7,40.5,41.4z
				 M59.5,37.4c-0.4-0.4-1-0.6-1.7-0.6c-0.2,0-0.3,0-0.5,0c-0.2,0-0.4,0.1-0.6,0.1c-0.2,0.1-0.5,0.1-0.7,0.3s-0.5,0.3-0.7,0.4
				c-0.1,0-0.1,0.1-0.2,0.1c0,0-0.1,0.1-0.1,0.1c0,0,0,0-0.1,0c-0.1,0.1-0.3,0.3-0.5,0.4c-0.2,0.2-0.5,0.5-1,0.9
				c0-0.3,0.1-0.5,0.1-0.6c0-0.1,0-0.2,0-0.3v-0.1c0-0.4-0.2-0.8-0.5-1c-0.3-0.2-0.7-0.4-1.3-0.4c-0.3,0-0.6,0-0.9,0.1
				c-0.3,0.1-0.6,0.2-1,0.3c-0.4,0.2-0.8,0.4-1.2,0.6c-0.4,0.2-0.7,0.5-1,0.7c0.1,0,0.1,0.1,0.2,0.1c0,0,0.1,0.1,0.1,0.1
				c0.1,0.1,0.2,0.2,0.3,0.3c0.1,0.1,0.1,0.3,0.1,0.5v0.2c0,0.1,0,0.2,0,0.2c0,0.1,0,0.2,0,0.2c0,0.1,0,0.2,0,0.2l-1.8,7.8l-0.1,0.1
				h5.1l0.4-2.2l0.3-1.2c0.3-1.1,0.6-2,1.1-2.7c0.5-0.7,1.1-1.2,1.8-1.7c0,0.1,0,0.2,0,0.3c0,0.1,0,0.1,0,0.2c0,0.4,0.2,0.7,0.6,1
				c0.4,0.3,0.8,0.4,1.3,0.4c0.8,0,1.6-0.3,2.2-1c0.6-0.7,1-1.5,1-2.4C60.1,38.3,59.9,37.8,59.5,37.4z M75.2,45.2
				C75.1,45.1,75,45,74.8,45c-0.1,0-0.2,0-0.3,0.1c-0.1,0-0.3,0.1-0.5,0.2c-0.1,0-0.2,0-0.3,0.1c-0.1,0-0.2,0-0.3,0
				c-0.3,0-0.5-0.1-0.7-0.2c-0.2-0.2-0.3-0.3-0.2-0.6c0-0.1,0-0.2,0-0.3c0-0.1,0.1-0.3,0.1-0.5l0.9-3.8c0,0,0-0.1,0-0.1
				c0,0,0-0.1,0-0.1c0-0.1,0-0.2,0-0.3c0-0.1,0-0.2,0-0.3c0-0.7-0.3-1.3-0.8-1.8c-0.5-0.5-1.2-0.7-2-0.7c-0.7,0-1.4,0.1-2.1,0.4
				c-0.7,0.3-1.4,0.7-2.1,1.3c0-0.6-0.2-1-0.5-1.3c-0.3-0.3-0.7-0.4-1.3-0.4c-0.6,0-1.3,0.1-2,0.4c-0.7,0.3-1.4,0.7-2.2,1.3
				c0.2,0.1,0.4,0.3,0.5,0.4c0.1,0.1,0.2,0.3,0.2,0.6c0,0.1,0,0.3,0,0.5c0,0.2-0.1,0.4-0.1,0.7l-1.7,7.8l0,0.1h4.8l0.5-2l0.8-3.6
				c0.1-0.6,0.4-1,0.6-1.3c0.3-0.3,0.6-0.5,1-0.5c0.3,0,0.5,0.1,0.6,0.2c0.2,0.1,0.2,0.3,0.2,0.6c0,0.1,0,0.1,0,0.2
				c0,0.1,0,0.2,0,0.3c0,0,0,0,0,0.1c0,0,0,0.1,0,0.1l-0.7,3.2c0,0,0,0.1,0,0.1c0,0,0,0.1,0,0.1c0,0.1,0,0.2,0,0.2
				c0,0.1,0,0.1,0,0.2c0,0.7,0.3,1.3,0.8,1.8c0.5,0.4,1.2,0.7,2.1,0.7h0.3c0.1,0,0.2,0,0.3,0c0.5,0,1.1-0.1,1.6-0.3
				c0.5-0.2,1-0.4,1.5-0.7c0.5-0.3,0.9-0.7,1.2-1c0.3-0.3,0.4-0.6,0.4-0.9C75.3,45.4,75.3,45.3,75.2,45.2z"/>
		</g>
	</g>
	<g id="max_copy_8_" class="st3">
		<g>
			<path class="st13" d="M109.4,27.6c-0.5,0-1.2,0.2-2,0.6c-0.8,0.4-1.6,0.9-2.4,1.6c-0.2,0.1-0.3,0.3-0.5,0.4
				c-0.2,0.1-0.4,0.3-0.5,0.5c0,0,0,0-0.1,0.1c0,0,0,0-0.1,0.1c-0.5,0.5-1,1-1.4,1.5c-0.4,0.5-0.9,1.1-1.3,1.7
				c-0.3,0.4-0.6,0.9-0.8,1.3c-0.3,0.5-0.6,1-0.9,1.6v-0.6c0-0.2,0-0.3,0-0.5c0-0.2,0-0.3,0-0.5c0-0.2,0-0.4,0-0.6
				c0-0.4,0-0.7-0.1-1c0-0.3,0-0.6,0-0.8c0-0.1,0-0.3,0-0.4c0-0.1,0-0.3,0-0.4c0-0.2,0.1-0.5,0.1-0.7c0.1-0.2,0.1-0.5,0.2-0.6
				c0.1-0.4,0.2-0.7,0.3-0.8c0-0.1,0.1-0.2,0.1-0.3v-0.2c0-0.3-0.1-0.5-0.2-0.7c-0.2-0.2-0.4-0.3-0.7-0.3c-0.1,0-0.2,0-0.3,0
				c-0.1,0-0.3,0-0.4,0c-0.1,0-0.1,0-0.2,0c-0.1,0-0.1,0-0.1,0h-0.5c-0.1,0-0.2,0-0.4,0c-0.1,0-0.2,0-0.4,0c-0.3,0-0.7-0.1-1.1-0.3
				c-0.4-0.1-0.9-0.3-1.5-0.6c-1-0.4-1.9-0.8-2.7-1c-0.8-0.2-1.5-0.3-2.2-0.4h-0.5c-1.8,0-3.4,0.6-4.7,1.8c-1.3,1.2-2,2.5-2,4.1
				c0,1.2,0.4,2.2,1.3,3.1c0.8,0.9,1.8,1.3,3,1.3c0.3,0,0.6,0,0.9-0.1c0.3-0.1,0.7-0.2,1-0.3c0.4-0.1,0.8-0.3,1.2-0.5
				c0.4-0.2,0.7-0.4,1.1-0.6c0.1-0.1,0.3-0.2,0.4-0.3c0.1-0.1,0.3-0.2,0.4-0.4c0.2-0.2,0.4-0.4,0.5-0.6c0.1-0.2,0.2-0.4,0.2-0.5
				v-0.1c0-0.1-0.1-0.2-0.1-0.3c-0.1-0.1-0.1-0.1-0.2-0.1h0l-0.6,0.1h0c-0.1,0-0.3-0.1-0.4-0.2c-0.1-0.2-0.2-0.3-0.2-0.5
				c0-0.4,0.2-0.7,0.5-0.9c0.3-0.2,0.8-0.4,1.2-0.4c0.3,0,0.7,0,1.2,0.1c0.5,0.1,1,0.2,1.7,0.4c-0.2,0.2-0.3,0.4-0.5,0.6
				c-0.1,0.2-0.3,0.3-0.4,0.5c0,0.1-0.1,0.1-0.1,0.2c0,0.1-0.1,0.1-0.1,0.2c-0.2,0.3-0.4,0.7-0.6,1.2c-0.2,0.5-0.6,1.2-1,2.1
				c-0.5,1.2-1,2.1-1.4,2.8c-0.4,0.7-0.8,1.3-1.2,1.7c-0.3,0.3-0.7,0.6-1,0.7c-0.3,0.1-0.7,0.2-1.1,0.2c-0.5,0-1-0.1-1.3-0.4
				c-0.4-0.3-0.6-0.6-0.6-1c0-0.1,0-0.1,0-0.2c0-0.1,0-0.1,0-0.2c0.1-0.2,0.1-0.3,0.2-0.4c0.1-0.1,0.2-0.3,0.3-0.4
				c0.1-0.1,0.2-0.1,0.3-0.2s0.1-0.1,0.1-0.2c0,0,0-0.1,0-0.1c0,0,0-0.1,0-0.1c0-0.3-0.2-0.6-0.6-0.8c-0.4-0.2-1-0.3-1.7-0.3
				c-2.2,0-4.1,0.7-5.7,2c-1.5,1.3-2.3,3-2.3,5c0,1.8,0.7,3.2,2,4.4c1.3,1.1,3,1.7,5.1,1.7c2.5,0,4.8-0.7,6.6-2.2
				c1.9-1.5,3.2-3.5,4-6.1c0.2-0.7,0.3-1.1,0.4-1.4c0.1-0.3,0.1-0.5,0.2-0.7c0.1-0.2,0.2-0.5,0.3-0.9c0.1-0.4,0.3-1.1,0.6-2.1
				c0.1-0.4,0.2-0.8,0.3-1c0.1-0.3,0.2-0.5,0.2-0.8c0-0.1,0.1-0.2,0.1-0.2c0-0.1,0.1-0.2,0.1-0.2c0-0.1,0.1-0.2,0.1-0.3
				c0-0.1,0.1-0.2,0.2-0.3c0,0.3,0,0.5-0.1,0.6c0,0.2,0,0.3-0.1,0.5v0.6c0,0.2,0,0.4,0,0.8c0,0.4,0,0.8,0.1,1.2c0,0.4,0.1,0.7,0.1,1
				c0,0.3,0,0.6,0,0.8c0,0.1,0,0.3,0,0.6c0,0.3,0,0.7,0,1.2c0,0.3,0,0.6-0.1,0.8c0,0.2,0,0.4-0.1,0.5c0,0.4-0.1,0.6-0.1,0.8
				c0,0.1,0,0.3,0,0.4v0.2c0,0.3,0.1,0.6,0.2,0.7c0.1,0.2,0.4,0.2,0.6,0.2c0.1,0,0.2,0,0.3,0c0.1,0,0.2-0.1,0.3-0.1
				c0.2-0.1,0.4-0.3,0.6-0.5c0.2-0.2,0.4-0.5,0.6-0.9c0.2-0.3,0.4-0.6,0.5-0.9c0.2-0.2,0.3-0.5,0.4-0.7c0-0.1,0.1-0.2,0.1-0.2
				c0-0.1,0.1-0.1,0.1-0.2c0.1-0.3,0.3-0.6,0.4-0.9s0.3-0.6,0.5-1c0.2-0.5,0.4-0.9,0.6-1.2c0.2-0.4,0.4-0.7,0.6-1
				c0-0.1,0.1-0.2,0.1-0.2c0-0.1,0.1-0.2,0.2-0.2c0.1-0.1,0.2-0.3,0.2-0.4c0.1-0.1,0.2-0.3,0.3-0.4c0.1-0.2,0.3-0.4,0.4-0.6
				c0.1-0.2,0.2-0.3,0.3-0.4c0.1-0.1,0.1-0.2,0.2-0.2c0.1-0.1,0.1-0.1,0.2-0.2c0.1-0.1,0.2-0.2,0.3-0.3c0.1-0.1,0.2-0.2,0.4-0.3
				c-1,1.7-1.8,3.3-2.2,4.7c-0.5,1.4-0.7,2.9-0.8,4.3v0.4c0,1.2,0.3,2.2,0.8,2.9c0.5,0.7,1.2,1,2.1,1c0.1,0,0.2,0,0.2,0
				c0.1,0,0.2,0,0.2,0c1.1-0.2,2.1-0.7,3-1.7c0.9-1,1.5-2,1.6-3.2c0-0.1,0-0.2,0-0.3c0-0.1,0-0.2,0-0.3c0-0.2-0.1-0.4-0.2-0.5
				c-0.1-0.1-0.2-0.2-0.4-0.2c0,0-0.1,0-0.2,0c-0.1,0-0.2,0.1-0.3,0.1c-0.1,0-0.2,0.1-0.2,0.1c-0.1,0-0.1,0-0.2,0
				c-0.4,0-0.7-0.2-0.9-0.7c-0.2-0.4-0.3-1-0.3-1.7c0-0.2,0-0.3,0-0.5c0-0.2,0-0.3,0-0.5c0.1-0.6,0.2-1.3,0.3-2
				c0.2-0.7,0.4-1.4,0.7-2.2c0.1-0.2,0.2-0.4,0.2-0.6c0.1-0.2,0.2-0.4,0.3-0.7c0.1-0.1,0.1-0.3,0.2-0.5c0.1-0.2,0.1-0.3,0.2-0.5
				c0.1-0.3,0.3-0.6,0.4-0.9c0.1-0.3,0.3-0.5,0.4-0.7c0.2-0.3,0.3-0.6,0.4-0.8c0.1-0.2,0.1-0.3,0.2-0.4v-0.2c0-0.3-0.1-0.5-0.3-0.6
				C110,27.6,109.7,27.6,109.4,27.6z M140.2,41.6c-0.1-0.1-0.3-0.2-0.5-0.2c-0.1,0-0.2,0-0.4,0.1c-0.2,0-0.4,0.1-0.6,0.2
				c-0.2,0.1-0.4,0.1-0.5,0.1c-0.2,0-0.3,0-0.5,0c-0.5,0-0.9-0.2-1.2-0.5c-0.4-0.3-0.5-0.7-0.5-1.2c0-0.5,0.2-1,0.6-1.4
				c0.4-0.4,0.9-0.5,1.4-0.5c0.1,0,0.2,0,0.3,0c0.1,0,0.2,0,0.3,0c0.1,0,0.3,0,0.4,0c0.1,0,0.2,0,0.3,0c0.3,0,0.5-0.1,0.7-0.4
				c0.2-0.2,0.3-0.6,0.3-0.9c0-0.6-0.2-1.1-0.7-1.5c-0.5-0.4-1-0.6-1.7-0.6c-0.7,0-1.4,0.2-2,0.5c-0.6,0.4-1.1,0.9-1.4,1.5
				c-0.1-0.7-0.4-1.2-0.8-1.5c-0.4-0.3-0.9-0.5-1.6-0.5c-0.1,0-0.3,0-0.4,0c-0.1,0-0.3,0-0.4,0.1c-0.6,0.2-1.2,0.4-1.7,0.8
				c-0.5,0.4-0.9,0.8-1.1,1.2c0,0.1-0.1,0.2-0.1,0.3c0,0.1,0,0.2,0,0.3c0,0.2,0.1,0.3,0.2,0.4c0.1,0.1,0.3,0.2,0.5,0.2l1.2-0.1h0.2
				c0.3,0,0.5,0.2,0.7,0.5c0.2,0.3,0.3,0.5,0.3,0.8c0,0.5-0.2,1-0.6,1.4c-0.4,0.4-0.8,0.6-1.3,0.6c-0.1,0-0.1,0-0.2,0
				c-0.1,0-0.1,0-0.2,0c-0.1,0-0.1,0-0.2,0c-0.1,0-0.1-0.1-0.2-0.1c-0.4-0.2-0.6-0.3-0.8-0.3c-0.1-0.1-0.2-0.1-0.3-0.1h-0.2
				c-0.4,0-0.7,0.2-0.9,0.7c-0.2,0.4-0.3,1-0.3,1.8c0,0,0,0,0-0.1c-0.1-0.1-0.2-0.2-0.3-0.2c-0.1,0-0.2,0-0.3,0
				c-0.1,0-0.3,0.1-0.4,0.1c0,0-0.1,0-0.1,0c0,0-0.1,0-0.1,0c-0.1,0-0.1,0-0.2,0c-0.1,0-0.1,0-0.2,0c-0.2,0-0.5-0.1-0.6-0.3
				c-0.2-0.2-0.3-0.4-0.2-0.6c0-0.1,0-0.2,0-0.4c0-0.2,0.1-0.4,0.1-0.6l1.1-5c0-0.1,0.1-0.2,0.1-0.3c0-0.1,0-0.2,0-0.2
				c0-0.3-0.1-0.6-0.4-0.8c-0.2-0.2-0.6-0.3-1-0.3c-0.1,0-0.2,0-0.3,0c-0.1,0-0.2,0-0.3,0c-0.3,0.1-0.6,0.2-0.9,0.3
				c-0.3,0.2-0.8,0.4-1.3,0.8c-0.4-0.4-0.8-0.8-1.3-1c-0.5-0.2-1.1-0.3-1.6-0.3c-1.7,0-3.3,0.8-4.7,2.5c-1.4,1.6-2.1,3.5-2.1,5.5
				c0,1.2,0.3,2.1,0.9,2.8c0.6,0.7,1.3,1.1,2.2,1.1c0.2,0,0.4,0,0.6-0.1c0.2,0,0.4-0.1,0.6-0.2c0.3-0.1,0.6-0.2,0.8-0.4
				c0.3-0.2,0.5-0.3,0.7-0.6c0.1,0,0.1-0.1,0.2-0.1c0,0,0.1-0.1,0.1-0.1c0,0,0,0,0.1-0.1c0,0,0.1,0,0.1-0.1c0.2-0.2,0.3-0.4,0.5-0.6
				c0.2-0.2,0.5-0.6,0.8-1c0,0.1,0,0.3,0,0.4v0.3c0,0.7,0.2,1.3,0.7,1.7c0.5,0.5,1.1,0.7,1.8,0.7c0.2,0,0.5,0,0.8-0.1
				c0.3,0,0.5-0.1,0.8-0.2c0.5-0.1,0.9-0.3,1.4-0.5c0.5-0.2,0.9-0.5,1.3-0.9c0.1,0,0.1-0.1,0.2-0.1c0.1,0,0.1-0.1,0.2-0.2
				c0.2-0.2,0.4-0.4,0.5-0.6c0-0.1,0-0.1,0.1-0.2c0.1,0.8,0.3,1.4,0.7,1.8c0.5,0.6,1.2,0.9,2.1,0.9c0.7,0,1.4-0.2,2-0.7
				c0.6-0.5,1.2-1.2,1.6-2.1c0,1,0.3,1.7,0.6,2.2c0.4,0.4,1,0.6,1.8,0.6c0.7,0,1.3-0.2,1.9-0.5c0.6-0.3,1.3-0.8,1.9-1.5
				c0.2-0.2,0.3-0.4,0.5-0.6c0.1-0.2,0.3-0.4,0.4-0.6c0.2-0.3,0.3-0.6,0.4-0.9c0.1-0.3,0.1-0.5,0.1-0.8
				C140.4,41.9,140.3,41.7,140.2,41.6z M118.7,39.3c-0.2,1.3-0.5,2.4-0.9,3.3c-0.4,0.9-0.8,1.4-1.1,1.3c-0.2,0-0.4-0.3-0.5-0.7
				c-0.1-0.5-0.1-1.1,0-1.8c0-0.1,0-0.1,0-0.1c0,0,0,0,0-0.1c0.2-1.1,0.4-2.1,0.8-2.9c0.4-0.9,0.7-1.4,1-1.5c0.1,0,0.1,0,0.2,0
				c0.2,0.1,0.4,0.3,0.4,0.8C118.8,38,118.8,38.6,118.7,39.3z"/>
		</g>
		<g>
			<path class="st5" d="M109.4,27.6c-0.5,0-1.2,0.2-2,0.6c-0.8,0.4-1.6,0.9-2.4,1.6c-0.2,0.1-0.3,0.3-0.5,0.4
				c-0.2,0.1-0.4,0.3-0.5,0.5c0,0,0,0-0.1,0.1c0,0,0,0-0.1,0.1c-0.5,0.5-1,1-1.4,1.5c-0.4,0.5-0.9,1.1-1.3,1.7
				c-0.3,0.4-0.6,0.9-0.8,1.3c-0.3,0.5-0.6,1-0.9,1.6v-0.6c0-0.2,0-0.3,0-0.5c0-0.2,0-0.3,0-0.5c0-0.2,0-0.4,0-0.6
				c0-0.4,0-0.7-0.1-1c0-0.3,0-0.6,0-0.8c0-0.1,0-0.3,0-0.4c0-0.1,0-0.3,0-0.4c0-0.2,0.1-0.5,0.1-0.7c0.1-0.2,0.1-0.5,0.2-0.6
				c0.1-0.4,0.2-0.7,0.3-0.8c0-0.1,0.1-0.2,0.1-0.3v-0.2c0-0.3-0.1-0.5-0.2-0.7c-0.2-0.2-0.4-0.3-0.7-0.3c-0.1,0-0.2,0-0.3,0
				c-0.1,0-0.3,0-0.4,0c-0.1,0-0.1,0-0.2,0c-0.1,0-0.1,0-0.1,0h-0.5c-0.1,0-0.2,0-0.4,0c-0.1,0-0.2,0-0.4,0c-0.3,0-0.7-0.1-1.1-0.3
				c-0.4-0.1-0.9-0.3-1.5-0.6c-1-0.4-1.9-0.8-2.7-1c-0.8-0.2-1.5-0.3-2.2-0.4h-0.5c-1.8,0-3.4,0.6-4.7,1.8c-1.3,1.2-2,2.5-2,4.1
				c0,1.2,0.4,2.2,1.3,3.1c0.8,0.9,1.8,1.3,3,1.3c0.3,0,0.6,0,0.9-0.1c0.3-0.1,0.7-0.2,1-0.3c0.4-0.1,0.8-0.3,1.2-0.5
				c0.4-0.2,0.7-0.4,1.1-0.6c0.1-0.1,0.3-0.2,0.4-0.3c0.1-0.1,0.3-0.2,0.4-0.4c0.2-0.2,0.4-0.4,0.5-0.6c0.1-0.2,0.2-0.4,0.2-0.5
				v-0.1c0-0.1-0.1-0.2-0.1-0.3c-0.1-0.1-0.1-0.1-0.2-0.1h0l-0.6,0.1h0c-0.1,0-0.3-0.1-0.4-0.2c-0.1-0.2-0.2-0.3-0.2-0.5
				c0-0.4,0.2-0.7,0.5-0.9c0.3-0.2,0.8-0.4,1.2-0.4c0.3,0,0.7,0,1.2,0.1c0.5,0.1,1,0.2,1.7,0.4c-0.2,0.2-0.3,0.4-0.5,0.6
				c-0.1,0.2-0.3,0.3-0.4,0.5c0,0.1-0.1,0.1-0.1,0.2c0,0.1-0.1,0.1-0.1,0.2c-0.2,0.3-0.4,0.7-0.6,1.2c-0.2,0.5-0.6,1.2-1,2.1
				c-0.5,1.2-1,2.1-1.4,2.8c-0.4,0.7-0.8,1.3-1.2,1.7c-0.3,0.3-0.7,0.6-1,0.7c-0.3,0.1-0.7,0.2-1.1,0.2c-0.5,0-1-0.1-1.3-0.4
				c-0.4-0.3-0.6-0.6-0.6-1c0-0.1,0-0.1,0-0.2c0-0.1,0-0.1,0-0.2c0.1-0.2,0.1-0.3,0.2-0.4c0.1-0.1,0.2-0.3,0.3-0.4
				c0.1-0.1,0.2-0.1,0.3-0.2s0.1-0.1,0.1-0.2c0,0,0-0.1,0-0.1c0,0,0-0.1,0-0.1c0-0.3-0.2-0.6-0.6-0.8c-0.4-0.2-1-0.3-1.7-0.3
				c-2.2,0-4.1,0.7-5.7,2c-1.5,1.3-2.3,3-2.3,5c0,1.8,0.7,3.2,2,4.4c1.3,1.1,3,1.7,5.1,1.7c2.5,0,4.8-0.7,6.6-2.2
				c1.9-1.5,3.2-3.5,4-6.1c0.2-0.7,0.3-1.1,0.4-1.4c0.1-0.3,0.1-0.5,0.2-0.7c0.1-0.2,0.2-0.5,0.3-0.9c0.1-0.4,0.3-1.1,0.6-2.1
				c0.1-0.4,0.2-0.8,0.3-1c0.1-0.3,0.2-0.5,0.2-0.8c0-0.1,0.1-0.2,0.1-0.2c0-0.1,0.1-0.2,0.1-0.2c0-0.1,0.1-0.2,0.1-0.3
				c0-0.1,0.1-0.2,0.2-0.3c0,0.3,0,0.5-0.1,0.6c0,0.2,0,0.3-0.1,0.5v0.6c0,0.2,0,0.4,0,0.8c0,0.4,0,0.8,0.1,1.2c0,0.4,0.1,0.7,0.1,1
				c0,0.3,0,0.6,0,0.8c0,0.1,0,0.3,0,0.6c0,0.3,0,0.7,0,1.2c0,0.3,0,0.6-0.1,0.8c0,0.2,0,0.4-0.1,0.5c0,0.4-0.1,0.6-0.1,0.8
				c0,0.1,0,0.3,0,0.4v0.2c0,0.3,0.1,0.6,0.2,0.7c0.1,0.2,0.4,0.2,0.6,0.2c0.1,0,0.2,0,0.3,0c0.1,0,0.2-0.1,0.3-0.1
				c0.2-0.1,0.4-0.3,0.6-0.5c0.2-0.2,0.4-0.5,0.6-0.9c0.2-0.3,0.4-0.6,0.5-0.9c0.2-0.2,0.3-0.5,0.4-0.7c0-0.1,0.1-0.2,0.1-0.2
				c0-0.1,0.1-0.1,0.1-0.2c0.1-0.3,0.3-0.6,0.4-0.9s0.3-0.6,0.5-1c0.2-0.5,0.4-0.9,0.6-1.2c0.2-0.4,0.4-0.7,0.6-1
				c0-0.1,0.1-0.2,0.1-0.2c0-0.1,0.1-0.2,0.2-0.2c0.1-0.1,0.2-0.3,0.2-0.4c0.1-0.1,0.2-0.3,0.3-0.4c0.1-0.2,0.3-0.4,0.4-0.6
				c0.1-0.2,0.2-0.3,0.3-0.4c0.1-0.1,0.1-0.2,0.2-0.2c0.1-0.1,0.1-0.1,0.2-0.2c0.1-0.1,0.2-0.2,0.3-0.3c0.1-0.1,0.2-0.2,0.4-0.3
				c-1,1.7-1.8,3.3-2.2,4.7c-0.5,1.4-0.7,2.9-0.8,4.3v0.4c0,1.2,0.3,2.2,0.8,2.9c0.5,0.7,1.2,1,2.1,1c0.1,0,0.2,0,0.2,0
				c0.1,0,0.2,0,0.2,0c1.1-0.2,2.1-0.7,3-1.7c0.9-1,1.5-2,1.6-3.2c0-0.1,0-0.2,0-0.3c0-0.1,0-0.2,0-0.3c0-0.2-0.1-0.4-0.2-0.5
				c-0.1-0.1-0.2-0.2-0.4-0.2c0,0-0.1,0-0.2,0c-0.1,0-0.2,0.1-0.3,0.1c-0.1,0-0.2,0.1-0.2,0.1c-0.1,0-0.1,0-0.2,0
				c-0.4,0-0.7-0.2-0.9-0.7c-0.2-0.4-0.3-1-0.3-1.7c0-0.2,0-0.3,0-0.5c0-0.2,0-0.3,0-0.5c0.1-0.6,0.2-1.3,0.3-2
				c0.2-0.7,0.4-1.4,0.7-2.2c0.1-0.2,0.2-0.4,0.2-0.6c0.1-0.2,0.2-0.4,0.3-0.7c0.1-0.1,0.1-0.3,0.2-0.5c0.1-0.2,0.1-0.3,0.2-0.5
				c0.1-0.3,0.3-0.6,0.4-0.9c0.1-0.3,0.3-0.5,0.4-0.7c0.2-0.3,0.3-0.6,0.4-0.8c0.1-0.2,0.1-0.3,0.2-0.4v-0.2c0-0.3-0.1-0.5-0.3-0.6
				C110,27.6,109.7,27.6,109.4,27.6z M140.2,41.6c-0.1-0.1-0.3-0.2-0.5-0.2c-0.1,0-0.2,0-0.4,0.1c-0.2,0-0.4,0.1-0.6,0.2
				c-0.2,0.1-0.4,0.1-0.5,0.1c-0.2,0-0.3,0-0.5,0c-0.5,0-0.9-0.2-1.2-0.5c-0.4-0.3-0.5-0.7-0.5-1.2c0-0.5,0.2-1,0.6-1.4
				c0.4-0.4,0.9-0.5,1.4-0.5c0.1,0,0.2,0,0.3,0c0.1,0,0.2,0,0.3,0c0.1,0,0.3,0,0.4,0c0.1,0,0.2,0,0.3,0c0.3,0,0.5-0.1,0.7-0.4
				c0.2-0.2,0.3-0.6,0.3-0.9c0-0.6-0.2-1.1-0.7-1.5c-0.5-0.4-1-0.6-1.7-0.6c-0.7,0-1.4,0.2-2,0.5c-0.6,0.4-1.1,0.9-1.4,1.5
				c-0.1-0.7-0.4-1.2-0.8-1.5c-0.4-0.3-0.9-0.5-1.6-0.5c-0.1,0-0.3,0-0.4,0c-0.1,0-0.3,0-0.4,0.1c-0.6,0.2-1.2,0.4-1.7,0.8
				c-0.5,0.4-0.9,0.8-1.1,1.2c0,0.1-0.1,0.2-0.1,0.3c0,0.1,0,0.2,0,0.3c0,0.2,0.1,0.3,0.2,0.4c0.1,0.1,0.3,0.2,0.5,0.2l1.2-0.1h0.2
				c0.3,0,0.5,0.2,0.7,0.5c0.2,0.3,0.3,0.5,0.3,0.8c0,0.5-0.2,1-0.6,1.4c-0.4,0.4-0.8,0.6-1.3,0.6c-0.1,0-0.1,0-0.2,0
				c-0.1,0-0.1,0-0.2,0c-0.1,0-0.1,0-0.2,0c-0.1,0-0.1-0.1-0.2-0.1c-0.4-0.2-0.6-0.3-0.8-0.3c-0.1-0.1-0.2-0.1-0.3-0.1h-0.2
				c-0.4,0-0.7,0.2-0.9,0.7c-0.2,0.4-0.3,1-0.3,1.8c0,0,0,0,0-0.1c-0.1-0.1-0.2-0.2-0.3-0.2c-0.1,0-0.2,0-0.3,0
				c-0.1,0-0.3,0.1-0.4,0.1c0,0-0.1,0-0.1,0c0,0-0.1,0-0.1,0c-0.1,0-0.1,0-0.2,0c-0.1,0-0.1,0-0.2,0c-0.2,0-0.5-0.1-0.6-0.3
				c-0.2-0.2-0.3-0.4-0.2-0.6c0-0.1,0-0.2,0-0.4c0-0.2,0.1-0.4,0.1-0.6l1.1-5c0-0.1,0.1-0.2,0.1-0.3c0-0.1,0-0.2,0-0.2
				c0-0.3-0.1-0.6-0.4-0.8c-0.2-0.2-0.6-0.3-1-0.3c-0.1,0-0.2,0-0.3,0c-0.1,0-0.2,0-0.3,0c-0.3,0.1-0.6,0.2-0.9,0.3
				c-0.3,0.2-0.8,0.4-1.3,0.8c-0.4-0.4-0.8-0.8-1.3-1c-0.5-0.2-1.1-0.3-1.6-0.3c-1.7,0-3.3,0.8-4.7,2.5c-1.4,1.6-2.1,3.5-2.1,5.5
				c0,1.2,0.3,2.1,0.9,2.8c0.6,0.7,1.3,1.1,2.2,1.1c0.2,0,0.4,0,0.6-0.1c0.2,0,0.4-0.1,0.6-0.2c0.3-0.1,0.6-0.2,0.8-0.4
				c0.3-0.2,0.5-0.3,0.7-0.6c0.1,0,0.1-0.1,0.2-0.1c0,0,0.1-0.1,0.1-0.1c0,0,0,0,0.1-0.1c0,0,0.1,0,0.1-0.1c0.2-0.2,0.3-0.4,0.5-0.6
				c0.2-0.2,0.5-0.6,0.8-1c0,0.1,0,0.3,0,0.4v0.3c0,0.7,0.2,1.3,0.7,1.7c0.5,0.5,1.1,0.7,1.8,0.7c0.2,0,0.5,0,0.8-0.1
				c0.3,0,0.5-0.1,0.8-0.2c0.5-0.1,0.9-0.3,1.4-0.5c0.5-0.2,0.9-0.5,1.3-0.9c0.1,0,0.1-0.1,0.2-0.1c0.1,0,0.1-0.1,0.2-0.2
				c0.2-0.2,0.4-0.4,0.5-0.6c0-0.1,0-0.1,0.1-0.2c0.1,0.8,0.3,1.4,0.7,1.8c0.5,0.6,1.2,0.9,2.1,0.9c0.7,0,1.4-0.2,2-0.7
				c0.6-0.5,1.2-1.2,1.6-2.1c0,1,0.3,1.7,0.6,2.2c0.4,0.4,1,0.6,1.8,0.6c0.7,0,1.3-0.2,1.9-0.5c0.6-0.3,1.3-0.8,1.9-1.5
				c0.2-0.2,0.3-0.4,0.5-0.6c0.1-0.2,0.3-0.4,0.4-0.6c0.2-0.3,0.3-0.6,0.4-0.9c0.1-0.3,0.1-0.5,0.1-0.8
				C140.4,41.9,140.3,41.7,140.2,41.6z M118.7,39.3c-0.2,1.3-0.5,2.4-0.9,3.3c-0.4,0.9-0.8,1.4-1.1,1.3c-0.2,0-0.4-0.3-0.5-0.7
				c-0.1-0.5-0.1-1.1,0-1.8c0-0.1,0-0.1,0-0.1c0,0,0,0,0-0.1c0.2-1.1,0.4-2.1,0.8-2.9c0.4-0.9,0.7-1.4,1-1.5c0.1,0,0.1,0,0.2,0
				c0.2,0.1,0.4,0.3,0.4,0.8C118.8,38,118.8,38.6,118.7,39.3z"/>
		</g>
	</g>
	<g id="max_copy_10_">
		<g>
			<path class="st13" d="M109.4,28.4c-0.5,0-1.2,0.2-2,0.6c-0.8,0.4-1.6,0.9-2.4,1.6c-0.2,0.1-0.3,0.3-0.5,0.4
				c-0.2,0.2-0.4,0.3-0.5,0.5c0,0,0,0-0.1,0.1c0,0,0,0-0.1,0.1c-0.5,0.5-1,1-1.4,1.5c-0.4,0.5-0.9,1.1-1.3,1.7
				c-0.3,0.4-0.6,0.9-0.8,1.3s-0.6,1-0.9,1.6v-0.6c0-0.2,0-0.3,0-0.5c0-0.2,0-0.3,0-0.5c0-0.2,0-0.4,0-0.6c0-0.4,0-0.7-0.1-1
				c0-0.3,0-0.6,0-0.8c0-0.1,0-0.3,0-0.4c0-0.1,0-0.3,0-0.5c0-0.2,0.1-0.5,0.1-0.7c0.1-0.2,0.1-0.5,0.2-0.6c0.1-0.4,0.2-0.7,0.3-0.8
				c0-0.1,0.1-0.2,0.1-0.3v-0.2c0-0.3-0.1-0.5-0.2-0.7c-0.2-0.2-0.4-0.3-0.7-0.3c-0.1,0-0.2,0-0.3,0c-0.1,0-0.3,0-0.4,0
				c-0.1,0-0.1,0-0.2,0c-0.1,0-0.1,0-0.1,0h-0.5c-0.1,0-0.2,0-0.4,0c-0.1,0-0.2,0-0.4,0c-0.3,0-0.7-0.1-1.1-0.3
				c-0.4-0.1-0.9-0.3-1.5-0.6c-1-0.4-1.9-0.8-2.7-1c-0.8-0.2-1.5-0.3-2.2-0.4h-0.5c-1.8,0-3.4,0.6-4.7,1.8c-1.3,1.2-2,2.5-2,4.1
				c0,1.2,0.4,2.2,1.3,3.1c0.8,0.9,1.8,1.3,3,1.3c0.3,0,0.6,0,0.9-0.1c0.3-0.1,0.7-0.1,1-0.3c0.4-0.1,0.8-0.3,1.2-0.5
				c0.4-0.2,0.7-0.4,1.1-0.6c0.1-0.1,0.3-0.2,0.4-0.3c0.1-0.1,0.3-0.2,0.4-0.4c0.2-0.2,0.4-0.4,0.5-0.6c0.1-0.2,0.2-0.4,0.2-0.5
				v-0.1c0-0.1-0.1-0.2-0.1-0.3c-0.1-0.1-0.1-0.1-0.2-0.1h0l-0.6,0.1h0c-0.1,0-0.3-0.1-0.4-0.2c-0.1-0.1-0.2-0.3-0.2-0.5
				c0-0.4,0.2-0.7,0.5-0.9c0.3-0.2,0.8-0.4,1.2-0.4c0.3,0,0.7,0,1.2,0.1c0.5,0.1,1,0.2,1.7,0.4c-0.2,0.2-0.3,0.4-0.5,0.6
				c-0.1,0.2-0.3,0.3-0.4,0.5c0,0.1-0.1,0.1-0.1,0.2c0,0.1-0.1,0.1-0.1,0.2c-0.2,0.3-0.4,0.7-0.6,1.2c-0.2,0.5-0.6,1.2-1,2.1
				c-0.5,1.2-1,2.1-1.4,2.8c-0.4,0.7-0.8,1.3-1.2,1.7c-0.3,0.3-0.7,0.6-1,0.7c-0.3,0.1-0.7,0.2-1.1,0.2c-0.5,0-1-0.1-1.3-0.4
				c-0.4-0.3-0.6-0.6-0.6-1c0-0.1,0-0.1,0-0.2c0-0.1,0-0.1,0-0.2c0.1-0.2,0.1-0.3,0.2-0.5c0.1-0.1,0.2-0.3,0.3-0.4
				c0.1-0.1,0.2-0.2,0.3-0.2s0.1-0.1,0.1-0.2c0,0,0-0.1,0-0.1c0,0,0-0.1,0-0.1c0-0.3-0.2-0.6-0.6-0.8c-0.4-0.2-1-0.3-1.7-0.3
				c-2.2,0-4.1,0.7-5.7,2c-1.5,1.3-2.3,3-2.3,5c0,1.8,0.7,3.2,2,4.3c1.3,1.1,3,1.7,5.1,1.7c2.5,0,4.8-0.7,6.6-2.2
				c1.9-1.5,3.2-3.5,4-6.1c0.2-0.7,0.3-1.1,0.4-1.4c0.1-0.3,0.1-0.5,0.2-0.7c0.1-0.2,0.2-0.5,0.3-0.9c0.1-0.4,0.3-1.1,0.6-2.1
				c0.1-0.4,0.2-0.8,0.3-1.1c0.1-0.3,0.2-0.5,0.2-0.8c0-0.1,0.1-0.2,0.1-0.2c0-0.1,0.1-0.2,0.1-0.2c0-0.1,0.1-0.2,0.1-0.3
				c0-0.1,0.1-0.2,0.2-0.3c0,0.3,0,0.5-0.1,0.6c0,0.2,0,0.3-0.1,0.5v0.6c0,0.2,0,0.4,0,0.8c0,0.4,0,0.8,0.1,1.2c0,0.4,0.1,0.7,0.1,1
				c0,0.3,0,0.6,0,0.8c0,0.1,0,0.3,0,0.6c0,0.3,0,0.7,0,1.2c0,0.3,0,0.6-0.1,0.8c0,0.2,0,0.4-0.1,0.5c0,0.4-0.1,0.6-0.1,0.8
				c0,0.1,0,0.3,0,0.4v0.2c0,0.3,0.1,0.6,0.2,0.7c0.1,0.2,0.4,0.2,0.6,0.2c0.1,0,0.2,0,0.3,0c0.1,0,0.2-0.1,0.3-0.1
				c0.2-0.1,0.4-0.3,0.6-0.5c0.2-0.2,0.4-0.5,0.6-0.9c0.2-0.3,0.4-0.6,0.5-0.9c0.2-0.2,0.3-0.5,0.4-0.7c0-0.1,0.1-0.2,0.1-0.2
				c0-0.1,0.1-0.1,0.1-0.2c0.1-0.3,0.3-0.6,0.4-0.9c0.2-0.3,0.3-0.6,0.5-1.1c0.2-0.5,0.4-0.9,0.6-1.2s0.4-0.7,0.6-1
				c0-0.1,0.1-0.2,0.1-0.2c0-0.1,0.1-0.2,0.2-0.2c0.1-0.1,0.2-0.3,0.2-0.4c0.1-0.2,0.2-0.3,0.3-0.4c0.1-0.2,0.3-0.4,0.4-0.6
				c0.1-0.2,0.2-0.3,0.3-0.5c0.1-0.1,0.1-0.2,0.2-0.2c0.1-0.1,0.1-0.2,0.2-0.2c0.1-0.1,0.2-0.2,0.3-0.3c0.1-0.1,0.2-0.2,0.4-0.3
				c-1,1.7-1.8,3.3-2.2,4.7c-0.5,1.4-0.7,2.9-0.8,4.3V44c0,1.2,0.3,2.2,0.8,2.9c0.5,0.7,1.2,1,2.1,1c0.1,0,0.2,0,0.2,0
				c0.1,0,0.2,0,0.2,0c1.1-0.2,2.1-0.7,3-1.7c0.9-1,1.5-2,1.6-3.2c0-0.1,0-0.2,0-0.3c0-0.1,0-0.2,0-0.3c0-0.2-0.1-0.4-0.2-0.5
				c-0.1-0.1-0.2-0.2-0.4-0.2c0,0-0.1,0-0.2,0c-0.1,0-0.2,0.1-0.3,0.1c-0.1,0-0.2,0.1-0.2,0.1c-0.1,0-0.1,0-0.2,0
				c-0.4,0-0.7-0.2-0.9-0.7c-0.2-0.4-0.3-1-0.3-1.7c0-0.2,0-0.3,0-0.5c0-0.2,0-0.3,0-0.5c0.1-0.6,0.2-1.3,0.3-2
				c0.2-0.7,0.4-1.4,0.7-2.2c0.1-0.2,0.2-0.4,0.2-0.6c0.1-0.2,0.2-0.4,0.3-0.7c0.1-0.1,0.1-0.3,0.2-0.5c0.1-0.2,0.1-0.3,0.2-0.5
				c0.1-0.3,0.3-0.6,0.4-0.9c0.1-0.3,0.3-0.5,0.4-0.7c0.2-0.3,0.3-0.6,0.4-0.8c0.1-0.2,0.1-0.3,0.2-0.4v-0.2c0-0.3-0.1-0.5-0.3-0.6
				C110,28.5,109.7,28.4,109.4,28.4z M140.2,42.4c-0.1-0.1-0.3-0.2-0.5-0.2c-0.1,0-0.2,0-0.4,0.1c-0.2,0-0.4,0.1-0.6,0.2
				c-0.2,0.1-0.4,0.1-0.5,0.1c-0.2,0-0.3,0-0.5,0c-0.5,0-0.9-0.2-1.2-0.5c-0.4-0.3-0.5-0.7-0.5-1.2c0-0.5,0.2-1,0.6-1.3
				c0.4-0.4,0.9-0.5,1.4-0.5c0.1,0,0.2,0,0.3,0c0.1,0,0.2,0,0.3,0c0.1,0,0.3,0,0.4,0c0.1,0,0.2,0,0.3,0c0.3,0,0.5-0.1,0.7-0.4
				c0.2-0.2,0.3-0.6,0.3-0.9c0-0.6-0.2-1.1-0.7-1.5c-0.5-0.4-1-0.6-1.7-0.6c-0.7,0-1.4,0.2-2,0.5c-0.6,0.4-1.1,0.9-1.4,1.5
				c-0.1-0.7-0.4-1.2-0.8-1.5c-0.4-0.3-0.9-0.5-1.6-0.5c-0.1,0-0.3,0-0.4,0c-0.1,0-0.3,0-0.4,0.1c-0.6,0.2-1.2,0.4-1.7,0.8
				c-0.5,0.4-0.9,0.8-1.1,1.2c0,0.1-0.1,0.2-0.1,0.3c0,0.1,0,0.2,0,0.3c0,0.2,0.1,0.3,0.2,0.5c0.1,0.1,0.3,0.2,0.5,0.2l1.2-0.1h0.2
				c0.3,0,0.5,0.2,0.7,0.5c0.2,0.3,0.3,0.5,0.3,0.8c0,0.5-0.2,1-0.6,1.4c-0.4,0.4-0.8,0.6-1.3,0.6c-0.1,0-0.1,0-0.2,0
				c-0.1,0-0.1,0-0.2,0c-0.1,0-0.1,0-0.2,0c-0.1,0-0.1-0.1-0.2-0.1c-0.4-0.2-0.6-0.3-0.8-0.3c-0.1-0.1-0.2-0.1-0.3-0.1h-0.2
				c-0.4,0-0.7,0.2-0.9,0.7c-0.2,0.4-0.3,1-0.3,1.8c0,0,0,0,0-0.1c-0.1-0.1-0.2-0.2-0.3-0.2c-0.1,0-0.2,0-0.3,0
				c-0.1,0-0.3,0.1-0.4,0.1c0,0-0.1,0-0.1,0c0,0-0.1,0-0.1,0c-0.1,0-0.1,0-0.2,0c-0.1,0-0.1,0-0.2,0c-0.2,0-0.5-0.1-0.6-0.3
				c-0.2-0.2-0.3-0.4-0.2-0.6c0-0.1,0-0.2,0-0.4c0-0.2,0.1-0.4,0.1-0.6l1.1-5c0-0.1,0.1-0.2,0.1-0.3c0-0.1,0-0.2,0-0.2
				c0-0.3-0.1-0.6-0.4-0.8s-0.6-0.3-1-0.3c-0.1,0-0.2,0-0.3,0c-0.1,0-0.2,0-0.3,0c-0.3,0.1-0.6,0.2-0.9,0.3
				c-0.3,0.2-0.8,0.4-1.3,0.8c-0.4-0.4-0.8-0.8-1.3-1c-0.5-0.2-1.1-0.3-1.6-0.3c-1.7,0-3.3,0.8-4.7,2.5c-1.4,1.7-2.1,3.5-2.1,5.5
				c0,1.2,0.3,2.1,0.9,2.8c0.6,0.7,1.3,1.1,2.2,1.1c0.2,0,0.4,0,0.6-0.1c0.2,0,0.4-0.1,0.6-0.1c0.3-0.1,0.6-0.2,0.8-0.4
				c0.3-0.2,0.5-0.3,0.7-0.6c0.1,0,0.1-0.1,0.2-0.1c0,0,0.1-0.1,0.1-0.2c0,0,0,0,0.1-0.1c0,0,0.1,0,0.1-0.1c0.2-0.2,0.3-0.4,0.5-0.6
				c0.2-0.2,0.5-0.6,0.8-1c0,0.1,0,0.3,0,0.4v0.3c0,0.7,0.2,1.3,0.7,1.7c0.5,0.5,1.1,0.7,1.8,0.7c0.2,0,0.5,0,0.8-0.1
				c0.3,0,0.5-0.1,0.8-0.1c0.5-0.1,0.9-0.3,1.4-0.5c0.5-0.2,0.9-0.5,1.3-0.9c0.1,0,0.1-0.1,0.2-0.1c0.1,0,0.1-0.1,0.2-0.2
				c0.2-0.2,0.4-0.4,0.5-0.6c0-0.1,0-0.1,0.1-0.2c0.1,0.8,0.3,1.4,0.7,1.8c0.5,0.6,1.2,0.9,2.1,0.9c0.7,0,1.4-0.2,2-0.7
				c0.6-0.5,1.2-1.2,1.6-2.1c0,1,0.3,1.7,0.6,2.2c0.4,0.4,1,0.6,1.8,0.6c0.7,0,1.3-0.2,1.9-0.5c0.6-0.3,1.3-0.8,1.9-1.5
				c0.2-0.2,0.3-0.4,0.5-0.6c0.1-0.2,0.3-0.4,0.4-0.6c0.2-0.3,0.3-0.6,0.4-0.9c0.1-0.3,0.1-0.5,0.1-0.8S140.3,42.6,140.2,42.4z
				 M118.7,40.2c-0.2,1.3-0.5,2.4-0.9,3.3c-0.4,0.9-0.8,1.4-1.1,1.3c-0.2,0-0.4-0.3-0.5-0.7c-0.1-0.5-0.1-1.1,0-1.8
				c0-0.1,0-0.1,0-0.1c0,0,0,0,0-0.1c0.2-1.1,0.4-2.1,0.8-2.9c0.4-0.9,0.7-1.4,1-1.5c0.1,0,0.1,0,0.2,0c0.2,0.1,0.4,0.3,0.4,0.8
				C118.8,38.9,118.8,39.5,118.7,40.2z"/>
		</g>
		<g>
			<path class="st6" d="M109.4,28.4c-0.5,0-1.2,0.2-2,0.6c-0.8,0.4-1.6,0.9-2.4,1.6c-0.2,0.1-0.3,0.3-0.5,0.4
				c-0.2,0.2-0.4,0.3-0.5,0.5c0,0,0,0-0.1,0.1c0,0,0,0-0.1,0.1c-0.5,0.5-1,1-1.4,1.5c-0.4,0.5-0.9,1.1-1.3,1.7
				c-0.3,0.4-0.6,0.9-0.8,1.3s-0.6,1-0.9,1.6v-0.6c0-0.2,0-0.3,0-0.5c0-0.2,0-0.3,0-0.5c0-0.2,0-0.4,0-0.6c0-0.4,0-0.7-0.1-1
				c0-0.3,0-0.6,0-0.8c0-0.1,0-0.3,0-0.4c0-0.1,0-0.3,0-0.5c0-0.2,0.1-0.5,0.1-0.7c0.1-0.2,0.1-0.5,0.2-0.6c0.1-0.4,0.2-0.7,0.3-0.8
				c0-0.1,0.1-0.2,0.1-0.3v-0.2c0-0.3-0.1-0.5-0.2-0.7c-0.2-0.2-0.4-0.3-0.7-0.3c-0.1,0-0.2,0-0.3,0c-0.1,0-0.3,0-0.4,0
				c-0.1,0-0.1,0-0.2,0c-0.1,0-0.1,0-0.1,0h-0.5c-0.1,0-0.2,0-0.4,0c-0.1,0-0.2,0-0.4,0c-0.3,0-0.7-0.1-1.1-0.3
				c-0.4-0.1-0.9-0.3-1.5-0.6c-1-0.4-1.9-0.8-2.7-1c-0.8-0.2-1.5-0.3-2.2-0.4h-0.5c-1.8,0-3.4,0.6-4.7,1.8c-1.3,1.2-2,2.5-2,4.1
				c0,1.2,0.4,2.2,1.3,3.1c0.8,0.9,1.8,1.3,3,1.3c0.3,0,0.6,0,0.9-0.1c0.3-0.1,0.7-0.1,1-0.3c0.4-0.1,0.8-0.3,1.2-0.5
				c0.4-0.2,0.7-0.4,1.1-0.6c0.1-0.1,0.3-0.2,0.4-0.3c0.1-0.1,0.3-0.2,0.4-0.4c0.2-0.2,0.4-0.4,0.5-0.6c0.1-0.2,0.2-0.4,0.2-0.5
				v-0.1c0-0.1-0.1-0.2-0.1-0.3c-0.1-0.1-0.1-0.1-0.2-0.1h0l-0.6,0.1h0c-0.1,0-0.3-0.1-0.4-0.2c-0.1-0.1-0.2-0.3-0.2-0.5
				c0-0.4,0.2-0.7,0.5-0.9c0.3-0.2,0.8-0.4,1.2-0.4c0.3,0,0.7,0,1.2,0.1c0.5,0.1,1,0.2,1.7,0.4c-0.2,0.2-0.3,0.4-0.5,0.6
				c-0.1,0.2-0.3,0.3-0.4,0.5c0,0.1-0.1,0.1-0.1,0.2c0,0.1-0.1,0.1-0.1,0.2c-0.2,0.3-0.4,0.7-0.6,1.2c-0.2,0.5-0.6,1.2-1,2.1
				c-0.5,1.2-1,2.1-1.4,2.8c-0.4,0.7-0.8,1.3-1.2,1.7c-0.3,0.3-0.7,0.6-1,0.7c-0.3,0.1-0.7,0.2-1.1,0.2c-0.5,0-1-0.1-1.3-0.4
				c-0.4-0.3-0.6-0.6-0.6-1c0-0.1,0-0.1,0-0.2c0-0.1,0-0.1,0-0.2c0.1-0.2,0.1-0.3,0.2-0.5c0.1-0.1,0.2-0.3,0.3-0.4
				c0.1-0.1,0.2-0.2,0.3-0.2s0.1-0.1,0.1-0.2c0,0,0-0.1,0-0.1c0,0,0-0.1,0-0.1c0-0.3-0.2-0.6-0.6-0.8c-0.4-0.2-1-0.3-1.7-0.3
				c-2.2,0-4.1,0.7-5.7,2c-1.5,1.3-2.3,3-2.3,5c0,1.8,0.7,3.2,2,4.3c1.3,1.1,3,1.7,5.1,1.7c2.5,0,4.8-0.7,6.6-2.2
				c1.9-1.5,3.2-3.5,4-6.1c0.2-0.7,0.3-1.1,0.4-1.4c0.1-0.3,0.1-0.5,0.2-0.7c0.1-0.2,0.2-0.5,0.3-0.9c0.1-0.4,0.3-1.1,0.6-2.1
				c0.1-0.4,0.2-0.8,0.3-1.1c0.1-0.3,0.2-0.5,0.2-0.8c0-0.1,0.1-0.2,0.1-0.2c0-0.1,0.1-0.2,0.1-0.2c0-0.1,0.1-0.2,0.1-0.3
				c0-0.1,0.1-0.2,0.2-0.3c0,0.3,0,0.5-0.1,0.6c0,0.2,0,0.3-0.1,0.5v0.6c0,0.2,0,0.4,0,0.8c0,0.4,0,0.8,0.1,1.2c0,0.4,0.1,0.7,0.1,1
				c0,0.3,0,0.6,0,0.8c0,0.1,0,0.3,0,0.6c0,0.3,0,0.7,0,1.2c0,0.3,0,0.6-0.1,0.8c0,0.2,0,0.4-0.1,0.5c0,0.4-0.1,0.6-0.1,0.8
				c0,0.1,0,0.3,0,0.4v0.2c0,0.3,0.1,0.6,0.2,0.7c0.1,0.2,0.4,0.2,0.6,0.2c0.1,0,0.2,0,0.3,0c0.1,0,0.2-0.1,0.3-0.1
				c0.2-0.1,0.4-0.3,0.6-0.5c0.2-0.2,0.4-0.5,0.6-0.9c0.2-0.3,0.4-0.6,0.5-0.9c0.2-0.2,0.3-0.5,0.4-0.7c0-0.1,0.1-0.2,0.1-0.2
				c0-0.1,0.1-0.1,0.1-0.2c0.1-0.3,0.3-0.6,0.4-0.9c0.2-0.3,0.3-0.6,0.5-1.1c0.2-0.5,0.4-0.9,0.6-1.2s0.4-0.7,0.6-1
				c0-0.1,0.1-0.2,0.1-0.2c0-0.1,0.1-0.2,0.2-0.2c0.1-0.1,0.2-0.3,0.2-0.4c0.1-0.2,0.2-0.3,0.3-0.4c0.1-0.2,0.3-0.4,0.4-0.6
				c0.1-0.2,0.2-0.3,0.3-0.5c0.1-0.1,0.1-0.2,0.2-0.2c0.1-0.1,0.1-0.2,0.2-0.2c0.1-0.1,0.2-0.2,0.3-0.3c0.1-0.1,0.2-0.2,0.4-0.3
				c-1,1.7-1.8,3.3-2.2,4.7c-0.5,1.4-0.7,2.9-0.8,4.3V44c0,1.2,0.3,2.2,0.8,2.9c0.5,0.7,1.2,1,2.1,1c0.1,0,0.2,0,0.2,0
				c0.1,0,0.2,0,0.2,0c1.1-0.2,2.1-0.7,3-1.7c0.9-1,1.5-2,1.6-3.2c0-0.1,0-0.2,0-0.3c0-0.1,0-0.2,0-0.3c0-0.2-0.1-0.4-0.2-0.5
				c-0.1-0.1-0.2-0.2-0.4-0.2c0,0-0.1,0-0.2,0c-0.1,0-0.2,0.1-0.3,0.1c-0.1,0-0.2,0.1-0.2,0.1c-0.1,0-0.1,0-0.2,0
				c-0.4,0-0.7-0.2-0.9-0.7c-0.2-0.4-0.3-1-0.3-1.7c0-0.2,0-0.3,0-0.5c0-0.2,0-0.3,0-0.5c0.1-0.6,0.2-1.3,0.3-2
				c0.2-0.7,0.4-1.4,0.7-2.2c0.1-0.2,0.2-0.4,0.2-0.6c0.1-0.2,0.2-0.4,0.3-0.7c0.1-0.1,0.1-0.3,0.2-0.5c0.1-0.2,0.1-0.3,0.2-0.5
				c0.1-0.3,0.3-0.6,0.4-0.9c0.1-0.3,0.3-0.5,0.4-0.7c0.2-0.3,0.3-0.6,0.4-0.8c0.1-0.2,0.1-0.3,0.2-0.4v-0.2c0-0.3-0.1-0.5-0.3-0.6
				C110,28.5,109.7,28.4,109.4,28.4z M140.2,42.4c-0.1-0.1-0.3-0.2-0.5-0.2c-0.1,0-0.2,0-0.4,0.1c-0.2,0-0.4,0.1-0.6,0.2
				c-0.2,0.1-0.4,0.1-0.5,0.1c-0.2,0-0.3,0-0.5,0c-0.5,0-0.9-0.2-1.2-0.5c-0.4-0.3-0.5-0.7-0.5-1.2c0-0.5,0.2-1,0.6-1.3
				c0.4-0.4,0.9-0.5,1.4-0.5c0.1,0,0.2,0,0.3,0c0.1,0,0.2,0,0.3,0c0.1,0,0.3,0,0.4,0c0.1,0,0.2,0,0.3,0c0.3,0,0.5-0.1,0.7-0.4
				c0.2-0.2,0.3-0.6,0.3-0.9c0-0.6-0.2-1.1-0.7-1.5c-0.5-0.4-1-0.6-1.7-0.6c-0.7,0-1.4,0.2-2,0.5c-0.6,0.4-1.1,0.9-1.4,1.5
				c-0.1-0.7-0.4-1.2-0.8-1.5c-0.4-0.3-0.9-0.5-1.6-0.5c-0.1,0-0.3,0-0.4,0c-0.1,0-0.3,0-0.4,0.1c-0.6,0.2-1.2,0.4-1.7,0.8
				c-0.5,0.4-0.9,0.8-1.1,1.2c0,0.1-0.1,0.2-0.1,0.3c0,0.1,0,0.2,0,0.3c0,0.2,0.1,0.3,0.2,0.5c0.1,0.1,0.3,0.2,0.5,0.2l1.2-0.1h0.2
				c0.3,0,0.5,0.2,0.7,0.5c0.2,0.3,0.3,0.5,0.3,0.8c0,0.5-0.2,1-0.6,1.4c-0.4,0.4-0.8,0.6-1.3,0.6c-0.1,0-0.1,0-0.2,0
				c-0.1,0-0.1,0-0.2,0c-0.1,0-0.1,0-0.2,0c-0.1,0-0.1-0.1-0.2-0.1c-0.4-0.2-0.6-0.3-0.8-0.3c-0.1-0.1-0.2-0.1-0.3-0.1h-0.2
				c-0.4,0-0.7,0.2-0.9,0.7c-0.2,0.4-0.3,1-0.3,1.8c0,0,0,0,0-0.1c-0.1-0.1-0.2-0.2-0.3-0.2c-0.1,0-0.2,0-0.3,0
				c-0.1,0-0.3,0.1-0.4,0.1c0,0-0.1,0-0.1,0c0,0-0.1,0-0.1,0c-0.1,0-0.1,0-0.2,0c-0.1,0-0.1,0-0.2,0c-0.2,0-0.5-0.1-0.6-0.3
				c-0.2-0.2-0.3-0.4-0.2-0.6c0-0.1,0-0.2,0-0.4c0-0.2,0.1-0.4,0.1-0.6l1.1-5c0-0.1,0.1-0.2,0.1-0.3c0-0.1,0-0.2,0-0.2
				c0-0.3-0.1-0.6-0.4-0.8s-0.6-0.3-1-0.3c-0.1,0-0.2,0-0.3,0c-0.1,0-0.2,0-0.3,0c-0.3,0.1-0.6,0.2-0.9,0.3
				c-0.3,0.2-0.8,0.4-1.3,0.8c-0.4-0.4-0.8-0.8-1.3-1c-0.5-0.2-1.1-0.3-1.6-0.3c-1.7,0-3.3,0.8-4.7,2.5c-1.4,1.7-2.1,3.5-2.1,5.5
				c0,1.2,0.3,2.1,0.9,2.8c0.6,0.7,1.3,1.1,2.2,1.1c0.2,0,0.4,0,0.6-0.1c0.2,0,0.4-0.1,0.6-0.1c0.3-0.1,0.6-0.2,0.8-0.4
				c0.3-0.2,0.5-0.3,0.7-0.6c0.1,0,0.1-0.1,0.2-0.1c0,0,0.1-0.1,0.1-0.2c0,0,0,0,0.1-0.1c0,0,0.1,0,0.1-0.1c0.2-0.2,0.3-0.4,0.5-0.6
				c0.2-0.2,0.5-0.6,0.8-1c0,0.1,0,0.3,0,0.4v0.3c0,0.7,0.2,1.3,0.7,1.7c0.5,0.5,1.1,0.7,1.8,0.7c0.2,0,0.5,0,0.8-0.1
				c0.3,0,0.5-0.1,0.8-0.1c0.5-0.1,0.9-0.3,1.4-0.5c0.5-0.2,0.9-0.5,1.3-0.9c0.1,0,0.1-0.1,0.2-0.1c0.1,0,0.1-0.1,0.2-0.2
				c0.2-0.2,0.4-0.4,0.5-0.6c0-0.1,0-0.1,0.1-0.2c0.1,0.8,0.3,1.4,0.7,1.8c0.5,0.6,1.2,0.9,2.1,0.9c0.7,0,1.4-0.2,2-0.7
				c0.6-0.5,1.2-1.2,1.6-2.1c0,1,0.3,1.7,0.6,2.2c0.4,0.4,1,0.6,1.8,0.6c0.7,0,1.3-0.2,1.9-0.5c0.6-0.3,1.3-0.8,1.9-1.5
				c0.2-0.2,0.3-0.4,0.5-0.6c0.1-0.2,0.3-0.4,0.4-0.6c0.2-0.3,0.3-0.6,0.4-0.9c0.1-0.3,0.1-0.5,0.1-0.8S140.3,42.6,140.2,42.4z
				 M118.7,40.2c-0.2,1.3-0.5,2.4-0.9,3.3c-0.4,0.9-0.8,1.4-1.1,1.3c-0.2,0-0.4-0.3-0.5-0.7c-0.1-0.5-0.1-1.1,0-1.8
				c0-0.1,0-0.1,0-0.1c0,0,0,0,0-0.1c0.2-1.1,0.4-2.1,0.8-2.9c0.4-0.9,0.7-1.4,1-1.5c0.1,0,0.1,0,0.2,0c0.2,0.1,0.4,0.3,0.4,0.8
				C118.8,38.9,118.8,39.5,118.7,40.2z"/>
		</g>
	</g>
	<g id="max_copy_1_">
		<g>
			<path class="st13" d="M109.4,28.4c-0.5,0-1.2,0.2-2,0.6c-0.8,0.4-1.6,0.9-2.4,1.6c-0.2,0.1-0.3,0.3-0.5,0.4
				c-0.2,0.2-0.4,0.3-0.5,0.5c0,0,0,0-0.1,0.1c0,0,0,0-0.1,0.1c-0.5,0.5-1,1-1.4,1.5c-0.4,0.5-0.9,1.1-1.3,1.7
				c-0.3,0.4-0.6,0.9-0.8,1.3s-0.6,1-0.9,1.6v-0.6c0-0.2,0-0.3,0-0.5c0-0.2,0-0.3,0-0.5c0-0.2,0-0.4,0-0.6c0-0.4,0-0.7-0.1-1
				c0-0.3,0-0.6,0-0.8c0-0.1,0-0.3,0-0.4c0-0.1,0-0.3,0-0.5c0-0.2,0.1-0.5,0.1-0.7c0.1-0.2,0.1-0.5,0.2-0.6c0.1-0.4,0.2-0.7,0.3-0.8
				c0-0.1,0.1-0.2,0.1-0.3v-0.2c0-0.3-0.1-0.5-0.2-0.7c-0.2-0.2-0.4-0.3-0.7-0.3c-0.1,0-0.2,0-0.3,0c-0.1,0-0.3,0-0.4,0
				c-0.1,0-0.1,0-0.2,0c-0.1,0-0.1,0-0.1,0h-0.5c-0.1,0-0.2,0-0.4,0c-0.1,0-0.2,0-0.4,0c-0.3,0-0.7-0.1-1.1-0.3
				c-0.4-0.1-0.9-0.3-1.5-0.6c-1-0.4-1.9-0.8-2.7-1c-0.8-0.2-1.5-0.3-2.2-0.4h-0.5c-1.8,0-3.4,0.6-4.7,1.8c-1.3,1.2-2,2.5-2,4.1
				c0,1.2,0.4,2.2,1.3,3.1c0.8,0.9,1.8,1.3,3,1.3c0.3,0,0.6,0,0.9-0.1c0.3-0.1,0.7-0.1,1-0.3c0.4-0.1,0.8-0.3,1.2-0.5
				c0.4-0.2,0.7-0.4,1.1-0.6c0.1-0.1,0.3-0.2,0.4-0.3c0.1-0.1,0.3-0.2,0.4-0.4c0.2-0.2,0.4-0.4,0.5-0.6c0.1-0.2,0.2-0.4,0.2-0.5
				v-0.1c0-0.1-0.1-0.2-0.1-0.3c-0.1-0.1-0.1-0.1-0.2-0.1h0l-0.6,0.1h0c-0.1,0-0.3-0.1-0.4-0.2c-0.1-0.1-0.2-0.3-0.2-0.5
				c0-0.4,0.2-0.7,0.5-0.9c0.3-0.2,0.8-0.4,1.2-0.4c0.3,0,0.7,0,1.2,0.1c0.5,0.1,1,0.2,1.7,0.4c-0.2,0.2-0.3,0.4-0.5,0.6
				c-0.1,0.2-0.3,0.3-0.4,0.5c0,0.1-0.1,0.1-0.1,0.2c0,0.1-0.1,0.1-0.1,0.2c-0.2,0.3-0.4,0.7-0.6,1.2c-0.2,0.5-0.6,1.2-1,2.1
				c-0.5,1.2-1,2.1-1.4,2.8c-0.4,0.7-0.8,1.3-1.2,1.7c-0.3,0.3-0.7,0.6-1,0.7c-0.3,0.1-0.7,0.2-1.1,0.2c-0.5,0-1-0.1-1.3-0.4
				c-0.4-0.3-0.6-0.6-0.6-1c0-0.1,0-0.1,0-0.2c0-0.1,0-0.1,0-0.2c0.1-0.2,0.1-0.3,0.2-0.5c0.1-0.1,0.2-0.3,0.3-0.4
				c0.1-0.1,0.2-0.2,0.3-0.2s0.1-0.1,0.1-0.2c0,0,0-0.1,0-0.1c0,0,0-0.1,0-0.1c0-0.3-0.2-0.6-0.6-0.8c-0.4-0.2-1-0.3-1.7-0.3
				c-2.2,0-4.1,0.7-5.7,2c-1.5,1.3-2.3,3-2.3,5c0,1.8,0.7,3.2,2,4.3c1.3,1.1,3,1.7,5.1,1.7c2.5,0,4.8-0.7,6.6-2.2
				c1.9-1.5,3.2-3.5,4-6.1c0.2-0.7,0.3-1.1,0.4-1.4c0.1-0.3,0.1-0.5,0.2-0.7c0.1-0.2,0.2-0.5,0.3-0.9c0.1-0.4,0.3-1.1,0.6-2.1
				c0.1-0.4,0.2-0.8,0.3-1.1c0.1-0.3,0.2-0.5,0.2-0.8c0-0.1,0.1-0.2,0.1-0.2c0-0.1,0.1-0.2,0.1-0.2c0-0.1,0.1-0.2,0.1-0.3
				c0-0.1,0.1-0.2,0.2-0.3c0,0.3,0,0.5-0.1,0.6c0,0.2,0,0.3-0.1,0.5v0.6c0,0.2,0,0.4,0,0.8c0,0.4,0,0.8,0.1,1.2c0,0.4,0.1,0.7,0.1,1
				c0,0.3,0,0.6,0,0.8c0,0.1,0,0.3,0,0.6c0,0.3,0,0.7,0,1.2c0,0.3,0,0.6-0.1,0.8c0,0.2,0,0.4-0.1,0.5c0,0.4-0.1,0.6-0.1,0.8
				c0,0.1,0,0.3,0,0.4v0.2c0,0.3,0.1,0.6,0.2,0.7c0.1,0.2,0.4,0.2,0.6,0.2c0.1,0,0.2,0,0.3,0c0.1,0,0.2-0.1,0.3-0.1
				c0.2-0.1,0.4-0.3,0.6-0.5c0.2-0.2,0.4-0.5,0.6-0.9c0.2-0.3,0.4-0.6,0.5-0.9c0.2-0.2,0.3-0.5,0.4-0.7c0-0.1,0.1-0.2,0.1-0.2
				c0-0.1,0.1-0.1,0.1-0.2c0.1-0.3,0.3-0.6,0.4-0.9c0.2-0.3,0.3-0.6,0.5-1.1c0.2-0.5,0.4-0.9,0.6-1.2s0.4-0.7,0.6-1
				c0-0.1,0.1-0.2,0.1-0.2c0-0.1,0.1-0.2,0.2-0.2c0.1-0.1,0.2-0.3,0.2-0.4c0.1-0.2,0.2-0.3,0.3-0.4c0.1-0.2,0.3-0.4,0.4-0.6
				c0.1-0.2,0.2-0.3,0.3-0.5c0.1-0.1,0.1-0.2,0.2-0.2c0.1-0.1,0.1-0.2,0.2-0.2c0.1-0.1,0.2-0.2,0.3-0.3c0.1-0.1,0.2-0.2,0.4-0.3
				c-1,1.7-1.8,3.3-2.2,4.7c-0.5,1.4-0.7,2.9-0.8,4.3V44c0,1.2,0.3,2.2,0.8,2.9c0.5,0.7,1.2,1,2.1,1c0.1,0,0.2,0,0.2,0
				c0.1,0,0.2,0,0.2,0c1.1-0.2,2.1-0.7,3-1.7c0.9-1,1.5-2,1.6-3.2c0-0.1,0-0.2,0-0.3c0-0.1,0-0.2,0-0.3c0-0.2-0.1-0.4-0.2-0.5
				c-0.1-0.1-0.2-0.2-0.4-0.2c0,0-0.1,0-0.2,0c-0.1,0-0.2,0.1-0.3,0.1c-0.1,0-0.2,0.1-0.2,0.1c-0.1,0-0.1,0-0.2,0
				c-0.4,0-0.7-0.2-0.9-0.7c-0.2-0.4-0.3-1-0.3-1.7c0-0.2,0-0.3,0-0.5c0-0.2,0-0.3,0-0.5c0.1-0.6,0.2-1.3,0.3-2
				c0.2-0.7,0.4-1.4,0.7-2.2c0.1-0.2,0.2-0.4,0.2-0.6c0.1-0.2,0.2-0.4,0.3-0.7c0.1-0.1,0.1-0.3,0.2-0.5c0.1-0.2,0.1-0.3,0.2-0.5
				c0.1-0.3,0.3-0.6,0.4-0.9c0.1-0.3,0.3-0.5,0.4-0.7c0.2-0.3,0.3-0.6,0.4-0.8c0.1-0.2,0.1-0.3,0.2-0.4v-0.2c0-0.3-0.1-0.5-0.3-0.6
				C110,28.5,109.7,28.4,109.4,28.4z M140.2,42.4c-0.1-0.1-0.3-0.2-0.5-0.2c-0.1,0-0.2,0-0.4,0.1c-0.2,0-0.4,0.1-0.6,0.2
				c-0.2,0.1-0.4,0.1-0.5,0.1c-0.2,0-0.3,0-0.5,0c-0.5,0-0.9-0.2-1.2-0.5c-0.4-0.3-0.5-0.7-0.5-1.2c0-0.5,0.2-1,0.6-1.3
				c0.4-0.4,0.9-0.5,1.4-0.5c0.1,0,0.2,0,0.3,0c0.1,0,0.2,0,0.3,0c0.1,0,0.3,0,0.4,0c0.1,0,0.2,0,0.3,0c0.3,0,0.5-0.1,0.7-0.4
				c0.2-0.2,0.3-0.6,0.3-0.9c0-0.6-0.2-1.1-0.7-1.5c-0.5-0.4-1-0.6-1.7-0.6c-0.7,0-1.4,0.2-2,0.5c-0.6,0.4-1.1,0.9-1.4,1.5
				c-0.1-0.7-0.4-1.2-0.8-1.5c-0.4-0.3-0.9-0.5-1.6-0.5c-0.1,0-0.3,0-0.4,0c-0.1,0-0.3,0-0.4,0.1c-0.6,0.2-1.2,0.4-1.7,0.8
				c-0.5,0.4-0.9,0.8-1.1,1.2c0,0.1-0.1,0.2-0.1,0.3c0,0.1,0,0.2,0,0.3c0,0.2,0.1,0.3,0.2,0.5c0.1,0.1,0.3,0.2,0.5,0.2l1.2-0.1h0.2
				c0.3,0,0.5,0.2,0.7,0.5c0.2,0.3,0.3,0.5,0.3,0.8c0,0.5-0.2,1-0.6,1.4c-0.4,0.4-0.8,0.6-1.3,0.6c-0.1,0-0.1,0-0.2,0
				c-0.1,0-0.1,0-0.2,0c-0.1,0-0.1,0-0.2,0c-0.1,0-0.1-0.1-0.2-0.1c-0.4-0.2-0.6-0.3-0.8-0.3c-0.1-0.1-0.2-0.1-0.3-0.1h-0.2
				c-0.4,0-0.7,0.2-0.9,0.7c-0.2,0.4-0.3,1-0.3,1.8c0,0,0,0,0-0.1c-0.1-0.1-0.2-0.2-0.3-0.2c-0.1,0-0.2,0-0.3,0
				c-0.1,0-0.3,0.1-0.4,0.1c0,0-0.1,0-0.1,0c0,0-0.1,0-0.1,0c-0.1,0-0.1,0-0.2,0c-0.1,0-0.1,0-0.2,0c-0.2,0-0.5-0.1-0.6-0.3
				c-0.2-0.2-0.3-0.4-0.2-0.6c0-0.1,0-0.2,0-0.4c0-0.2,0.1-0.4,0.1-0.6l1.1-5c0-0.1,0.1-0.2,0.1-0.3c0-0.1,0-0.2,0-0.2
				c0-0.3-0.1-0.6-0.4-0.8s-0.6-0.3-1-0.3c-0.1,0-0.2,0-0.3,0c-0.1,0-0.2,0-0.3,0c-0.3,0.1-0.6,0.2-0.9,0.3
				c-0.3,0.2-0.8,0.4-1.3,0.8c-0.4-0.4-0.8-0.8-1.3-1c-0.5-0.2-1.1-0.3-1.6-0.3c-1.7,0-3.3,0.8-4.7,2.5c-1.4,1.7-2.1,3.5-2.1,5.5
				c0,1.2,0.3,2.1,0.9,2.8c0.6,0.7,1.3,1.1,2.2,1.1c0.2,0,0.4,0,0.6-0.1c0.2,0,0.4-0.1,0.6-0.1c0.3-0.1,0.6-0.2,0.8-0.4
				c0.3-0.2,0.5-0.3,0.7-0.6c0.1,0,0.1-0.1,0.2-0.1c0,0,0.1-0.1,0.1-0.2c0,0,0,0,0.1-0.1c0,0,0.1,0,0.1-0.1c0.2-0.2,0.3-0.4,0.5-0.6
				c0.2-0.2,0.5-0.6,0.8-1c0,0.1,0,0.3,0,0.4v0.3c0,0.7,0.2,1.3,0.7,1.7c0.5,0.5,1.1,0.7,1.8,0.7c0.2,0,0.5,0,0.8-0.1
				c0.3,0,0.5-0.1,0.8-0.1c0.5-0.1,0.9-0.3,1.4-0.5c0.5-0.2,0.9-0.5,1.3-0.9c0.1,0,0.1-0.1,0.2-0.1c0.1,0,0.1-0.1,0.2-0.2
				c0.2-0.2,0.4-0.4,0.5-0.6c0-0.1,0-0.1,0.1-0.2c0.1,0.8,0.3,1.4,0.7,1.8c0.5,0.6,1.2,0.9,2.1,0.9c0.7,0,1.4-0.2,2-0.7
				c0.6-0.5,1.2-1.2,1.6-2.1c0,1,0.3,1.7,0.6,2.2c0.4,0.4,1,0.6,1.8,0.6c0.7,0,1.3-0.2,1.9-0.5c0.6-0.3,1.3-0.8,1.9-1.5
				c0.2-0.2,0.3-0.4,0.5-0.6c0.1-0.2,0.3-0.4,0.4-0.6c0.2-0.3,0.3-0.6,0.4-0.9c0.1-0.3,0.1-0.5,0.1-0.8S140.3,42.6,140.2,42.4z
				 M118.7,40.2c-0.2,1.3-0.5,2.4-0.9,3.3c-0.4,0.9-0.8,1.4-1.1,1.3c-0.2,0-0.4-0.3-0.5-0.7c-0.1-0.5-0.1-1.1,0-1.8
				c0-0.1,0-0.1,0-0.1c0,0,0,0,0-0.1c0.2-1.1,0.4-2.1,0.8-2.9c0.4-0.9,0.7-1.4,1-1.5c0.1,0,0.1,0,0.2,0c0.2,0.1,0.4,0.3,0.4,0.8
				C118.8,38.9,118.8,39.5,118.7,40.2z"/>
		</g>
	</g>
	<g id="max_copy_5_">
		<g>
			<path class="st14" d="M109.8,28.9c-0.5,0-1.2,0.2-2,0.6c-0.8,0.4-1.6,0.9-2.4,1.6c-0.2,0.1-0.3,0.3-0.5,0.4
				c-0.2,0.2-0.4,0.3-0.5,0.5c0,0,0,0-0.1,0.1c0,0,0,0-0.1,0.1c-0.5,0.5-1,1-1.4,1.5c-0.4,0.5-0.9,1.1-1.3,1.7
				c-0.3,0.4-0.6,0.9-0.8,1.4c-0.3,0.5-0.6,1-0.9,1.6v-0.6c0-0.2,0-0.3,0-0.5c0-0.2,0-0.3,0-0.5c0-0.2,0-0.4,0-0.6
				c0-0.4,0-0.7-0.1-1c0-0.3,0-0.6,0-0.8c0-0.1,0-0.3,0-0.4c0-0.1,0-0.3,0-0.5c0-0.2,0.1-0.5,0.1-0.7c0.1-0.2,0.1-0.5,0.2-0.6
				c0.1-0.4,0.2-0.7,0.3-0.8c0-0.1,0.1-0.2,0.1-0.3v-0.2c0-0.3-0.1-0.5-0.2-0.7c-0.2-0.2-0.4-0.3-0.7-0.3c-0.1,0-0.2,0-0.3,0
				c-0.1,0-0.3,0-0.4,0c-0.1,0-0.1,0-0.2,0c-0.1,0-0.1,0-0.1,0h-0.5c-0.1,0-0.2,0-0.4,0c-0.1,0-0.2,0-0.4,0c-0.3,0-0.7-0.1-1.1-0.3
				c-0.4-0.1-0.9-0.3-1.5-0.6c-1-0.4-1.9-0.8-2.7-1c-0.8-0.2-1.5-0.3-2.2-0.4h-0.5c-1.8,0-3.4,0.6-4.7,1.8c-1.3,1.2-2,2.5-2,4.1
				c0,1.2,0.4,2.2,1.3,3.1c0.8,0.9,1.8,1.3,3,1.3c0.3,0,0.6,0,0.9-0.1s0.7-0.2,1-0.3c0.4-0.1,0.8-0.3,1.2-0.5
				c0.4-0.2,0.7-0.4,1.1-0.6c0.1-0.1,0.3-0.2,0.4-0.3c0.1-0.1,0.3-0.2,0.4-0.4c0.2-0.2,0.4-0.4,0.5-0.6c0.1-0.2,0.2-0.4,0.2-0.5
				v-0.1c0-0.1-0.1-0.2-0.1-0.3C92.1,34,92,34,91.9,34h0L91.2,34h0c-0.1,0-0.3-0.1-0.4-0.2c-0.1-0.1-0.2-0.3-0.2-0.5
				c0-0.4,0.2-0.7,0.5-0.9c0.3-0.2,0.8-0.4,1.2-0.4c0.3,0,0.7,0,1.2,0.1c0.5,0.1,1,0.2,1.7,0.4c-0.2,0.2-0.3,0.4-0.5,0.6
				c-0.1,0.2-0.3,0.3-0.4,0.5c0,0.1-0.1,0.1-0.1,0.2c0,0.1-0.1,0.1-0.1,0.2c-0.2,0.3-0.4,0.7-0.6,1.2c-0.2,0.5-0.6,1.2-1,2.1
				c-0.5,1.2-1,2.1-1.4,2.8c-0.4,0.7-0.8,1.3-1.2,1.7c-0.3,0.3-0.7,0.6-1,0.7c-0.3,0.1-0.7,0.2-1.1,0.2c-0.5,0-1-0.1-1.3-0.4
				c-0.4-0.3-0.6-0.6-0.6-1c0-0.1,0-0.1,0-0.2c0-0.1,0-0.1,0-0.1c0.1-0.2,0.1-0.3,0.2-0.5c0.1-0.1,0.2-0.3,0.3-0.4
				c0.1-0.1,0.2-0.2,0.3-0.2s0.1-0.1,0.1-0.2c0,0,0-0.1,0-0.1c0,0,0-0.1,0-0.1c0-0.3-0.2-0.6-0.6-0.8c-0.4-0.2-1-0.3-1.7-0.3
				c-2.2,0-4.1,0.7-5.7,2c-1.5,1.3-2.3,3-2.3,5c0,1.8,0.7,3.2,2,4.3s3,1.7,5.1,1.7c2.5,0,4.8-0.7,6.6-2.2c1.9-1.5,3.2-3.5,4-6.2
				c0.2-0.7,0.3-1.1,0.4-1.4c0.1-0.3,0.1-0.5,0.2-0.7c0.1-0.2,0.2-0.5,0.3-0.9c0.1-0.4,0.3-1.1,0.6-2.1c0.1-0.4,0.2-0.8,0.3-1
				c0.1-0.3,0.2-0.5,0.2-0.8c0-0.1,0.1-0.2,0.1-0.2c0-0.1,0.1-0.2,0.1-0.2c0-0.1,0.1-0.2,0.1-0.3c0-0.1,0.1-0.2,0.2-0.3
				c0,0.3,0,0.5-0.1,0.6c0,0.2,0,0.3-0.1,0.5v0.6c0,0.2,0,0.4,0,0.8c0,0.4,0,0.8,0.1,1.2c0,0.4,0.1,0.7,0.1,1c0,0.3,0,0.6,0,0.8
				c0,0.1,0,0.3,0,0.6c0,0.3,0,0.7,0,1.2c0,0.3,0,0.6-0.1,0.8c0,0.2,0,0.4-0.1,0.5c0,0.4-0.1,0.6-0.1,0.8c0,0.1,0,0.3,0,0.4v0.2
				c0,0.3,0.1,0.6,0.2,0.7c0.1,0.2,0.4,0.2,0.6,0.2c0.1,0,0.2,0,0.3,0c0.1,0,0.2-0.1,0.3-0.1c0.2-0.1,0.4-0.3,0.6-0.5
				c0.2-0.2,0.4-0.5,0.6-0.9c0.2-0.3,0.4-0.6,0.5-0.9c0.2-0.2,0.3-0.5,0.4-0.7c0-0.1,0.1-0.2,0.1-0.2c0-0.1,0.1-0.1,0.1-0.2
				c0.1-0.3,0.3-0.6,0.4-0.9c0.2-0.3,0.3-0.6,0.5-1c0.2-0.5,0.4-0.9,0.6-1.2c0.2-0.4,0.4-0.7,0.6-1c0-0.1,0.1-0.2,0.1-0.2
				c0-0.1,0.1-0.1,0.2-0.2c0.1-0.1,0.2-0.3,0.2-0.4c0.1-0.2,0.2-0.3,0.3-0.4c0.1-0.2,0.3-0.4,0.4-0.6c0.1-0.2,0.2-0.3,0.3-0.5
				c0.1-0.1,0.1-0.2,0.2-0.2c0.1-0.1,0.1-0.2,0.2-0.2c0.1-0.1,0.2-0.2,0.3-0.3c0.1-0.1,0.2-0.2,0.4-0.3c-1,1.7-1.8,3.3-2.2,4.7
				c-0.5,1.4-0.7,2.9-0.8,4.3v0.4c0,1.2,0.3,2.2,0.8,2.9c0.5,0.7,1.2,1,2.1,1c0.1,0,0.2,0,0.2,0c0.1,0,0.2,0,0.2,0
				c1.1-0.2,2.1-0.7,3-1.7c0.9-1,1.5-2,1.6-3.2c0-0.1,0-0.2,0-0.3c0-0.1,0-0.2,0-0.3c0-0.2-0.1-0.4-0.2-0.5
				c-0.1-0.1-0.2-0.2-0.4-0.2c0,0-0.1,0-0.2,0c-0.1,0-0.2,0.1-0.3,0.1c-0.1,0-0.2,0.1-0.2,0.1c-0.1,0-0.1,0-0.2,0
				c-0.4,0-0.7-0.2-0.9-0.7c-0.2-0.4-0.3-1-0.3-1.7c0-0.2,0-0.3,0-0.5c0-0.2,0-0.3,0-0.5c0.1-0.6,0.2-1.3,0.3-1.9
				c0.2-0.7,0.4-1.4,0.7-2.2c0.1-0.2,0.2-0.4,0.2-0.6c0.1-0.2,0.2-0.4,0.3-0.7c0.1-0.1,0.1-0.3,0.2-0.4c0.1-0.2,0.1-0.3,0.2-0.5
				c0.1-0.3,0.3-0.6,0.4-0.9c0.1-0.3,0.3-0.5,0.4-0.7c0.2-0.3,0.3-0.6,0.4-0.8c0.1-0.2,0.1-0.3,0.2-0.4v-0.2c0-0.3-0.1-0.5-0.3-0.6
				C110.4,28.9,110.2,28.9,109.8,28.9z M140.6,42.9c-0.1-0.1-0.3-0.2-0.5-0.2c-0.1,0-0.2,0-0.4,0.1c-0.2,0-0.4,0.1-0.6,0.2
				c-0.2,0.1-0.4,0.1-0.5,0.1c-0.2,0-0.3,0-0.5,0c-0.5,0-0.9-0.2-1.2-0.5c-0.4-0.3-0.5-0.7-0.5-1.2c0-0.5,0.2-1,0.6-1.3
				c0.4-0.4,0.9-0.5,1.4-0.5c0.1,0,0.2,0,0.3,0c0.1,0,0.2,0,0.3,0c0.1,0,0.3,0,0.4,0c0.1,0,0.2,0,0.3,0c0.3,0,0.5-0.1,0.7-0.4
				c0.2-0.2,0.3-0.6,0.3-0.9c0-0.6-0.2-1.1-0.7-1.5c-0.5-0.4-1-0.6-1.7-0.6c-0.7,0-1.4,0.2-2,0.5c-0.6,0.4-1.1,0.9-1.4,1.5
				c-0.1-0.7-0.4-1.2-0.8-1.5c-0.4-0.3-0.9-0.5-1.6-0.5c-0.1,0-0.3,0-0.4,0c-0.1,0-0.3,0-0.4,0.1c-0.6,0.2-1.2,0.4-1.7,0.8
				c-0.5,0.4-0.9,0.8-1.1,1.2c0,0.1-0.1,0.2-0.1,0.3c0,0.1,0,0.2,0,0.3c0,0.2,0.1,0.3,0.2,0.5c0.1,0.1,0.3,0.2,0.5,0.2l1.2-0.1h0.2
				c0.3,0,0.5,0.2,0.7,0.5c0.2,0.3,0.3,0.5,0.3,0.8c0,0.5-0.2,1-0.6,1.4c-0.4,0.4-0.8,0.6-1.3,0.6c-0.1,0-0.1,0-0.2,0
				c-0.1,0-0.1,0-0.2,0c-0.1,0-0.1,0-0.2,0c-0.1,0-0.1-0.1-0.2-0.1c-0.4-0.2-0.6-0.3-0.8-0.3c-0.1-0.1-0.2-0.1-0.3-0.1h-0.2
				c-0.4,0-0.7,0.2-0.9,0.7c-0.2,0.4-0.3,1-0.3,1.8c0,0,0,0,0-0.1c-0.1-0.1-0.2-0.2-0.3-0.2c-0.1,0-0.2,0-0.3,0
				c-0.1,0-0.3,0.1-0.4,0.1c0,0-0.1,0-0.1,0c0,0-0.1,0-0.1,0c-0.1,0-0.1,0-0.2,0c-0.1,0-0.1,0-0.2,0c-0.2,0-0.5-0.1-0.6-0.3
				c-0.2-0.2-0.3-0.4-0.2-0.6c0-0.1,0-0.2,0-0.4c0-0.2,0.1-0.4,0.1-0.6l1.1-5c0-0.1,0.1-0.2,0.1-0.3c0-0.1,0-0.2,0-0.2
				c0-0.3-0.1-0.6-0.4-0.8c-0.2-0.2-0.6-0.3-1-0.3c-0.1,0-0.2,0-0.3,0c-0.1,0-0.2,0-0.3,0c-0.3,0.1-0.6,0.2-0.9,0.3
				c-0.3,0.2-0.8,0.4-1.3,0.8c-0.4-0.4-0.8-0.8-1.3-1c-0.5-0.2-1.1-0.3-1.6-0.3c-1.7,0-3.3,0.8-4.7,2.5c-1.4,1.7-2.1,3.5-2.1,5.5
				c0,1.2,0.3,2.1,0.9,2.8c0.6,0.7,1.3,1.1,2.2,1.1c0.2,0,0.4,0,0.6-0.1c0.2,0,0.4-0.1,0.6-0.2c0.3-0.1,0.6-0.2,0.8-0.4
				c0.3-0.2,0.5-0.3,0.7-0.6c0.1,0,0.1-0.1,0.2-0.1c0,0,0.1-0.1,0.1-0.2c0,0,0,0,0.1-0.1c0,0,0.1,0,0.1-0.1c0.2-0.2,0.3-0.4,0.5-0.6
				c0.2-0.2,0.5-0.6,0.8-1c0,0.1,0,0.3,0,0.4v0.3c0,0.7,0.2,1.3,0.7,1.7c0.5,0.5,1.1,0.7,1.8,0.7c0.2,0,0.5,0,0.8-0.1
				c0.3,0,0.5-0.1,0.8-0.2c0.5-0.1,0.9-0.3,1.4-0.5s0.9-0.5,1.3-0.9c0.1,0,0.1-0.1,0.2-0.1c0.1,0,0.1-0.1,0.2-0.2
				c0.2-0.2,0.4-0.4,0.5-0.6c0-0.1,0-0.1,0.1-0.2c0.1,0.8,0.3,1.4,0.7,1.8c0.5,0.6,1.2,0.9,2.1,0.9c0.7,0,1.4-0.2,2-0.7
				c0.6-0.5,1.2-1.2,1.6-2.1c0,1,0.3,1.7,0.6,2.2c0.4,0.4,1,0.6,1.8,0.6c0.7,0,1.3-0.2,1.9-0.5c0.6-0.3,1.3-0.8,1.9-1.5
				c0.2-0.2,0.3-0.4,0.5-0.6c0.1-0.2,0.3-0.4,0.4-0.6c0.2-0.3,0.3-0.6,0.4-0.9c0.1-0.3,0.1-0.5,0.1-0.8S140.7,43,140.6,42.9z
				 M119.1,40.6c-0.2,1.3-0.5,2.4-0.9,3.3c-0.4,0.9-0.8,1.4-1.1,1.3c-0.2,0-0.4-0.3-0.5-0.7c-0.1-0.5-0.1-1.1,0-1.8
				c0-0.1,0-0.1,0-0.1c0,0,0,0,0-0.1c0.2-1.1,0.4-2.1,0.8-2.9c0.4-0.9,0.7-1.4,1-1.5c0.1,0,0.1,0,0.2,0c0.2,0.1,0.4,0.3,0.4,0.8
				C119.2,39.3,119.2,39.9,119.1,40.6z"/>
		</g>
	</g>
</g>
</svg>
